<svg width="141" height="42" viewBox="0 0 141 42" fill="none" xmlns="http://www.w3.org/2000/svg">
<path fill-rule="evenodd" clip-rule="evenodd" d="M14.69 35.2919C9.68857 34.0691 5.24094 32.4709 1.42578 30.5293C1.76069 31.2099 2.14625 31.8715 2.58271 32.5102C4.15584 34.8123 6.36564 36.8228 9.03256 38.4107C13.9722 38.4696 18.8194 37.9911 23.5206 36.9789C20.4104 36.5321 17.4624 35.9697 14.69 35.2919Z" fill="white"/>
<mask id="mask0" mask-type="alpha" maskUnits="userSpaceOnUse" x="0" y="17" width="48" height="19">
<path fill-rule="evenodd" clip-rule="evenodd" d="M0 17.7568H47.7534V35.6802H0V17.7568Z" fill="white"/>
</mask>
<g mask="url(#mask0)">
<path fill-rule="evenodd" clip-rule="evenodd" d="M0.566978 28.1102C4.67251 30.3258 9.6299 32.121 15.3193 33.4489C19.3017 34.3785 23.6493 35.0791 28.3252 35.5473C33.4475 34.087 38.3762 32.0014 43.0062 29.3311C44.675 28.3687 46.2001 27.3892 47.5792 26.4309C47.6513 25.9951 47.7032 25.5549 47.7307 25.11C47.7433 24.9074 47.7506 24.7038 47.7535 24.4993C47.7294 23.6754 47.4802 22.9082 47.0649 22.2571C46.9367 22.0561 46.7838 21.8724 46.6204 21.6989C46.4557 21.5241 46.282 21.3517 46.0994 21.1817C44.6383 19.8207 42.6145 18.6138 40.1734 17.624V21.0999C41.727 22.0445 42.6149 23.1374 42.6149 24.302C42.6149 27.8832 34.2256 30.7864 23.8767 30.7864C13.528 30.7864 5.13866 27.8832 5.13866 24.302C5.13866 23.1374 6.02664 22.0445 7.58018 21.0999V17.624C5.13906 18.6138 3.11527 19.8207 1.65423 21.1817C1.5317 21.296 1.41315 21.4112 1.29843 21.5274C0.891287 21.9409 0.547528 22.4168 0.32722 22.9537C0.130862 23.4325 0.0161427 23.9535 0 24.4993C0.00304329 24.7038 0.0103207 24.9074 0.0228908 25.11C0.0862707 26.1357 0.272176 27.138 0.566978 28.1102Z" fill="white"/>
</g>
<mask id="mask1" mask-type="alpha" maskUnits="userSpaceOnUse" x="13" y="37" width="26" height="5">
<path fill-rule="evenodd" clip-rule="evenodd" d="M13.542 37.6982H38.4878V41.9998H13.542V37.6982Z" fill="white"/>
</mask>
<g mask="url(#mask1)">
<path fill-rule="evenodd" clip-rule="evenodd" d="M29.336 37.6982C28.2888 38.0074 27.2336 38.2922 26.1705 38.5497C22.0666 39.544 17.8446 40.1494 13.542 40.3671C16.6004 41.4128 20.0204 41.9999 23.6319 41.9999C29.2658 41.9999 34.4358 40.5747 38.4878 38.1996C35.3196 38.1209 32.2662 37.9536 29.336 37.6982Z" fill="white"/>
</g>
<path fill-rule="evenodd" clip-rule="evenodd" d="M43.5831 31.4309C40.3531 33.2336 36.9798 34.764 33.499 36.0139C35.9281 36.1532 38.4347 36.237 41.0143 36.2649C42.4845 35.1536 43.7439 33.9014 44.7446 32.539C45.3814 31.6719 45.912 30.76 46.3283 29.8125C45.4612 30.3517 44.5465 30.8932 43.5831 31.4309Z" fill="white"/>
<path fill-rule="evenodd" clip-rule="evenodd" d="M22.0023 6.06702C22.5187 7.13723 22.808 8.33686 22.808 9.60385V29.3942C16.8868 29.3147 11.6603 28.3024 8.33173 26.7716C7.16039 26.2328 6.41504 25.0591 6.41504 23.773V20.007V16.3476V9.60385C6.41504 5.09175 10.0847 1.43382 14.6116 1.43382C15.7847 1.43382 16.9002 1.67948 17.9093 2.122L20.1764 0.0796466C20.2853 -0.0183798 20.4481 -0.0268703 20.5665 0.0594496C20.6714 0.135735 20.7174 0.269139 20.6819 0.393666L19.9987 2.79866C19.9292 3.04304 19.9608 3.30007 20.078 3.51613C20.223 3.64556 20.3633 3.78005 20.4987 3.91934C20.7623 4.04837 21.0764 4.05166 21.3481 3.91631L22.9795 3.10406C23.0915 3.04823 23.2264 3.06534 23.3209 3.14741L23.4142 3.22846C23.5276 3.32687 23.554 3.49256 23.4765 3.62121L22.0023 6.06702ZM17.1061 6.45245C17.1061 7.2443 16.4679 7.88626 15.6808 7.88626C14.8935 7.88626 14.2552 7.2443 14.2552 6.45245C14.2552 5.66061 14.8935 5.01853 15.6808 5.01853C16.4679 5.01853 17.1061 5.66061 17.1061 6.45245Z" fill="url(#paint0_linear)"/>
<path fill-rule="evenodd" clip-rule="evenodd" d="M40.9536 14.3234C41.1446 14.9258 41.2681 15.5584 41.3152 16.2121C41.3295 16.4099 41.3393 16.6089 41.3393 16.8103V19.8582V23.8689C41.3393 25.1422 40.5949 26.2978 39.4353 26.8205C36.0731 28.3363 30.8487 29.331 24.9463 29.3947V16.8103C24.9463 12.278 28.6159 8.60365 33.1428 8.60365C34.6898 8.60365 36.1364 9.03289 37.3706 9.7789L39.4205 7.96496C39.5292 7.86866 39.6921 7.86032 39.8105 7.94512C39.9153 8.02006 39.9613 8.15111 39.9259 8.27344L39.2426 10.6361C39.1433 10.9792 39.2506 11.3479 39.5195 11.588C39.8121 11.8492 40.238 11.9072 40.592 11.7339L42.2234 10.936C42.3356 10.8812 42.4704 10.898 42.5648 10.9786L42.6582 11.0582C42.7716 11.1549 42.798 11.3176 42.7204 11.444L40.9536 14.3234ZM37.0628 13.6221C37.0628 14.4139 36.4246 15.056 35.6374 15.056C34.8501 15.056 34.2119 14.4139 34.2119 13.6221C34.2119 12.8303 34.8501 12.1883 35.6374 12.1883C36.4246 12.1883 37.0628 12.8303 37.0628 13.6221Z" fill="url(#paint1_linear)"/>
<path fill-rule="evenodd" clip-rule="evenodd" d="M88.4192 13.0927C85.2939 13.0927 82.7743 15.6121 82.7743 18.7024V33.4393C82.7743 34.3925 82.0016 35.1653 81.0483 35.1653C80.095 35.1653 79.3223 34.3925 79.3223 33.4393V18.7024C79.3223 13.69 83.4029 9.64062 88.4192 9.64062C93.4356 9.64062 97.5161 13.6901 97.5161 18.7024V33.4393C97.5161 34.3925 96.7433 35.1653 95.79 35.1653C94.8368 35.1653 94.064 34.3925 94.064 33.4393V18.7024C94.064 15.6121 91.5446 13.0927 88.4192 13.0927Z" fill="white"/>
<path fill-rule="evenodd" clip-rule="evenodd" d="M103.161 13.0927C100.036 13.0927 97.5165 15.6121 97.5165 18.7024V33.4393C97.5165 34.3925 96.7437 35.1653 95.7905 35.1653C94.8372 35.1653 94.0645 34.3925 94.0645 33.4393V18.7024C94.0645 13.69 98.1451 9.64062 103.161 9.64062C108.178 9.64062 112.258 13.69 112.258 18.7024V33.4393C112.258 34.3925 111.485 35.1653 110.532 35.1653C109.579 35.1653 108.806 34.3925 108.806 33.4393V18.7024C108.806 15.6121 106.287 13.0927 103.161 13.0927Z" fill="white"/>
<path fill-rule="evenodd" clip-rule="evenodd" d="M124.543 13.0927C121.418 13.0927 118.898 15.6121 118.898 18.7024V33.4393C118.898 34.3925 118.126 35.1653 117.172 35.1653C116.219 35.1653 115.446 34.3925 115.446 33.4393V18.7024C115.446 13.69 119.527 9.64062 124.543 9.64062C129.559 9.64062 133.64 13.69 133.64 18.7024V33.4393C133.64 34.3925 132.867 35.1653 131.914 35.1653C130.961 35.1653 130.188 34.3925 130.188 33.4393V18.7024C130.188 15.6121 127.669 13.0927 124.543 13.0927Z" fill="white"/>
<path fill-rule="evenodd" clip-rule="evenodd" d="M139.148 9.97754C140.101 9.97754 140.874 10.7503 140.874 11.7036V33.4392C140.874 34.3924 140.101 35.1652 139.148 35.1652C138.195 35.1652 137.422 34.3924 137.422 33.4392V11.7036C137.422 10.7503 138.195 9.97754 139.148 9.97754Z" fill="white"/>
<path fill-rule="evenodd" clip-rule="evenodd" d="M67.2063 12.0819C64.0806 12.0819 61.5614 14.601 61.5614 17.6907V26.6102C61.5614 29.6998 64.0806 32.2189 67.2063 32.2189C70.3318 32.2189 72.8511 29.6998 72.8511 26.6102V17.6907C72.8511 14.601 70.3318 12.0819 67.2063 12.0819ZM58.1094 17.6907C58.1094 12.6785 62.1901 8.62988 67.2063 8.62988C72.2223 8.62988 76.3032 12.6785 76.3032 17.6907V26.6102C76.3032 31.6223 72.2223 35.671 67.2063 35.671C62.1901 35.671 58.1094 31.6222 58.1094 26.6102V17.6907Z" fill="white"/>
<defs>
<linearGradient id="paint0_linear" x1="19.5227" y1="46.0457" x2="52.6048" y2="21.1247" gradientUnits="userSpaceOnUse">
<stop stop-color="#8478F8"/>
<stop offset="1" stop-color="#96C9F8"/>
<stop offset="1" stop-color="white"/>
</linearGradient>
<linearGradient id="paint1_linear" x1="50.0352" y1="33.618" x2="44.0372" y2="16.6796" gradientUnits="userSpaceOnUse">
<stop stop-color="#70AAF3"/>
<stop offset="1" stop-color="#A2DCFF"/>
</linearGradient>
</defs>
</svg>
