<svg width="116" height="510" viewBox="0 0 116 510" fill="none" xmlns="http://www.w3.org/2000/svg">
<rect x="42" width="32" height="32" rx="8" fill="#958AF8"/>
<path d="M51.333 24.333C51.333 22.5649 52.0354 20.8692 53.2856 19.619C54.5359 18.3687 56.2316 17.6663 57.9997 17.6663C59.7678 17.6663 61.4635 18.3687 62.7137 19.619C63.964 20.8692 64.6663 22.5649 64.6663 24.333H62.9997C62.9997 23.0069 62.4729 21.7352 61.5352 20.7975C60.5975 19.8598 59.3258 19.333 57.9997 19.333C56.6736 19.333 55.4018 19.8598 54.4641 20.7975C53.5265 21.7352 52.9997 23.0069 52.9997 24.333H51.333ZM57.9997 16.833C55.2372 16.833 52.9997 14.5955 52.9997 11.833C52.9997 9.07051 55.2372 6.83301 57.9997 6.83301C60.7622 6.83301 62.9997 9.07051 62.9997 11.833C62.9997 14.5955 60.7622 16.833 57.9997 16.833ZM57.9997 15.1663C59.8413 15.1663 61.333 13.6747 61.333 11.833C61.333 9.99134 59.8413 8.49967 57.9997 8.49967C56.158 8.49967 54.6663 9.99134 54.6663 11.833C54.6663 13.6747 56.158 15.1663 57.9997 15.1663Z" fill="white"/>
<path d="M2.65406 50.1C2.65406 49.1387 2.86873 48.28 3.29806 47.524C3.73673 46.7587 4.3294 46.166 5.07606 45.746C5.83206 45.3167 6.67673 45.102 7.61006 45.102C8.70206 45.102 9.65873 45.382 10.4801 45.942C11.3014 46.502 11.8754 47.2767 12.2021 48.266H9.94806C9.72406 47.7993 9.40673 47.4493 8.99606 47.216C8.59473 46.9827 8.12806 46.866 7.59606 46.866C7.02673 46.866 6.51806 47.0013 6.07006 47.272C5.6314 47.5333 5.28606 47.9067 5.03406 48.392C4.7914 48.8773 4.67006 49.4467 4.67006 50.1C4.67006 50.744 4.7914 51.3133 5.03406 51.808C5.28606 52.2933 5.6314 52.6713 6.07006 52.942C6.51806 53.2033 7.02673 53.334 7.59606 53.334C8.12806 53.334 8.59473 53.2173 8.99606 52.984C9.40673 52.7413 9.72406 52.3867 9.94806 51.92H12.2021C11.8754 52.9187 11.3014 53.698 10.4801 54.258C9.66806 54.8087 8.7114 55.084 7.61006 55.084C6.67673 55.084 5.83206 54.874 5.07606 54.454C4.3294 54.0247 3.73673 53.432 3.29806 52.676C2.86873 51.92 2.65406 51.0613 2.65406 50.1ZM15.8362 48.448C16.0882 48.0373 16.4148 47.7153 16.8162 47.482C17.2268 47.2487 17.6935 47.132 18.2162 47.132V49.19H17.6982C17.0822 49.19 16.6155 49.3347 16.2982 49.624C15.9902 49.9133 15.8362 50.4173 15.8362 51.136V55H13.8762V47.244H15.8362V48.448ZM26.7463 50.954C26.7463 51.234 26.7276 51.486 26.6903 51.71H21.0203C21.067 52.27 21.263 52.7087 21.6083 53.026C21.9536 53.3433 22.3783 53.502 22.8823 53.502C23.6103 53.502 24.1283 53.1893 24.4363 52.564H26.5503C26.3263 53.3107 25.897 53.9267 25.2623 54.412C24.6276 54.888 23.8483 55.126 22.9243 55.126C22.1776 55.126 21.5056 54.9627 20.9083 54.636C20.3203 54.3 19.8583 53.8287 19.5223 53.222C19.1956 52.6153 19.0323 51.9153 19.0323 51.122C19.0323 50.3193 19.1956 49.6147 19.5223 49.008C19.849 48.4013 20.3063 47.9347 20.8943 47.608C21.4823 47.2813 22.159 47.118 22.9243 47.118C23.6616 47.118 24.3196 47.2767 24.8983 47.594C25.4863 47.9113 25.939 48.364 26.2563 48.952C26.583 49.5307 26.7463 50.198 26.7463 50.954ZM24.7163 50.394C24.707 49.89 24.525 49.4887 24.1703 49.19C23.8156 48.882 23.3816 48.728 22.8683 48.728C22.383 48.728 21.9723 48.8773 21.6363 49.176C21.3096 49.4653 21.109 49.8713 21.0343 50.394H24.7163ZM27.6729 51.094C27.6729 50.31 27.8269 49.6147 28.1349 49.008C28.4523 48.4013 28.8769 47.9347 29.4089 47.608C29.9503 47.2813 30.5523 47.118 31.2149 47.118C31.7936 47.118 32.2976 47.2347 32.7269 47.468C33.1656 47.7013 33.5156 47.9953 33.7769 48.35V47.244H35.7509V55H33.7769V53.866C33.5249 54.23 33.1749 54.5333 32.7269 54.776C32.2883 55.0093 31.7796 55.126 31.2009 55.126C30.5476 55.126 29.9503 54.958 29.4089 54.622C28.8769 54.286 28.4523 53.8147 28.1349 53.208C27.8269 52.592 27.6729 51.8873 27.6729 51.094ZM33.7769 51.122C33.7769 50.646 33.6836 50.24 33.4969 49.904C33.3103 49.5587 33.0583 49.2973 32.7409 49.12C32.4236 48.9333 32.0829 48.84 31.7189 48.84C31.3549 48.84 31.0189 48.9287 30.7109 49.106C30.4029 49.2833 30.1509 49.5447 29.9549 49.89C29.7683 50.226 29.6749 50.6273 29.6749 51.094C29.6749 51.5607 29.7683 51.9713 29.9549 52.326C30.1509 52.6713 30.4029 52.9373 30.7109 53.124C31.0283 53.3107 31.3643 53.404 31.7189 53.404C32.0829 53.404 32.4236 53.3153 32.7409 53.138C33.0583 52.9513 33.3103 52.69 33.4969 52.354C33.6836 52.0087 33.7769 51.598 33.7769 51.122ZM39.9472 48.854V52.606C39.9472 52.8673 40.0079 53.0587 40.1292 53.18C40.2599 53.292 40.4746 53.348 40.7732 53.348H41.6832V55H40.4512C38.7992 55 37.9732 54.1973 37.9732 52.592V48.854H37.0492V47.244H37.9732V45.326H39.9472V47.244H41.6832V48.854H39.9472ZM50.303 50.954C50.303 51.234 50.2843 51.486 50.247 51.71H44.577C44.6236 52.27 44.8196 52.7087 45.165 53.026C45.5103 53.3433 45.935 53.502 46.439 53.502C47.167 53.502 47.685 53.1893 47.993 52.564H50.107C49.883 53.3107 49.4536 53.9267 48.819 54.412C48.1843 54.888 47.405 55.126 46.481 55.126C45.7343 55.126 45.0623 54.9627 44.465 54.636C43.877 54.3 43.415 53.8287 43.079 53.222C42.7523 52.6153 42.589 51.9153 42.589 51.122C42.589 50.3193 42.7523 49.6147 43.079 49.008C43.4056 48.4013 43.863 47.9347 44.451 47.608C45.039 47.2813 45.7156 47.118 46.481 47.118C47.2183 47.118 47.8763 47.2767 48.455 47.594C49.043 47.9113 49.4956 48.364 49.813 48.952C50.1396 49.5307 50.303 50.198 50.303 50.954ZM48.273 50.394C48.2636 49.89 48.0816 49.4887 47.727 49.19C47.3723 48.882 46.9383 48.728 46.425 48.728C45.9396 48.728 45.529 48.8773 45.193 49.176C44.8663 49.4653 44.6656 49.8713 44.591 50.394H48.273ZM61.0615 53.138H57.1695L56.5255 55H54.4675L57.9815 45.214H60.2635L63.7775 55H61.7055L61.0615 53.138ZM60.5295 51.57L59.1155 47.482L57.7015 51.57H60.5295ZM64.587 51.122C64.587 50.3193 64.7503 49.6193 65.077 49.022C65.4037 48.4153 65.8563 47.9487 66.435 47.622C67.0137 47.286 67.6763 47.118 68.423 47.118C69.3843 47.118 70.1777 47.3607 70.803 47.846C71.4377 48.322 71.8623 48.994 72.077 49.862H69.963C69.851 49.526 69.6597 49.2647 69.389 49.078C69.1277 48.882 68.801 48.784 68.409 48.784C67.849 48.784 67.4057 48.9893 67.079 49.4C66.7523 49.8013 66.589 50.3753 66.589 51.122C66.589 51.8593 66.7523 52.4333 67.079 52.844C67.4057 53.2453 67.849 53.446 68.409 53.446C69.2023 53.446 69.7203 53.0913 69.963 52.382H72.077C71.8623 53.222 71.4377 53.8893 70.803 54.384C70.1683 54.8787 69.375 55.126 68.423 55.126C67.6763 55.126 67.0137 54.9627 66.435 54.636C65.8563 54.3 65.4037 53.8333 65.077 53.236C64.7503 52.6293 64.587 51.9247 64.587 51.122ZM73.0089 51.122C73.0089 50.3193 73.1722 49.6193 73.4989 49.022C73.8255 48.4153 74.2782 47.9487 74.8569 47.622C75.4355 47.286 76.0982 47.118 76.8449 47.118C77.8062 47.118 78.5995 47.3607 79.2249 47.846C79.8595 48.322 80.2842 48.994 80.4989 49.862H78.3849C78.2729 49.526 78.0815 49.2647 77.8109 49.078C77.5495 48.882 77.2229 48.784 76.8309 48.784C76.2709 48.784 75.8275 48.9893 75.5009 49.4C75.1742 49.8013 75.0109 50.3753 75.0109 51.122C75.0109 51.8593 75.1742 52.4333 75.5009 52.844C75.8275 53.2453 76.2709 53.446 76.8309 53.446C77.6242 53.446 78.1422 53.0913 78.3849 52.382H80.4989C80.2842 53.222 79.8595 53.8893 79.2249 54.384C78.5902 54.8787 77.7969 55.126 76.8449 55.126C76.0982 55.126 75.4355 54.9627 74.8569 54.636C74.2782 54.3 73.8255 53.8333 73.4989 53.236C73.1722 52.6293 73.0089 51.9247 73.0089 51.122ZM85.3788 55.126C84.6321 55.126 83.9601 54.9627 83.3628 54.636C82.7654 54.3 82.2941 53.8287 81.9488 53.222C81.6128 52.6153 81.4448 51.9153 81.4448 51.122C81.4448 50.3287 81.6174 49.6287 81.9628 49.022C82.3174 48.4153 82.7981 47.9487 83.4048 47.622C84.0114 47.286 84.6881 47.118 85.4348 47.118C86.1814 47.118 86.8581 47.286 87.4648 47.622C88.0714 47.9487 88.5474 48.4153 88.8928 49.022C89.2474 49.6287 89.4248 50.3287 89.4248 51.122C89.4248 51.9153 89.2428 52.6153 88.8787 53.222C88.5241 53.8287 88.0388 54.3 87.4228 54.636C86.8161 54.9627 86.1348 55.126 85.3788 55.126ZM85.3788 53.418C85.7334 53.418 86.0648 53.334 86.3728 53.166C86.6901 52.9887 86.9421 52.7273 87.1288 52.382C87.3154 52.0367 87.4088 51.6167 87.4088 51.122C87.4088 50.3847 87.2128 49.82 86.8208 49.428C86.4381 49.0267 85.9668 48.826 85.4068 48.826C84.8468 48.826 84.3754 49.0267 83.9928 49.428C83.6194 49.82 83.4328 50.3847 83.4328 51.122C83.4328 51.8593 83.6148 52.4287 83.9788 52.83C84.3521 53.222 84.8188 53.418 85.3788 53.418ZM98.1845 47.244V55H96.2105V54.02C95.9585 54.356 95.6272 54.622 95.2165 54.818C94.8152 55.0047 94.3765 55.098 93.9005 55.098C93.2938 55.098 92.7572 54.972 92.2905 54.72C91.8238 54.4587 91.4552 54.0807 91.1845 53.586C90.9232 53.082 90.7925 52.4847 90.7925 51.794V47.244H92.7525V51.514C92.7525 52.13 92.9065 52.606 93.2145 52.942C93.5225 53.2687 93.9425 53.432 94.4745 53.432C95.0158 53.432 95.4405 53.2687 95.7485 52.942C96.0565 52.606 96.2105 52.13 96.2105 51.514V47.244H98.1845ZM104.416 47.132C105.34 47.132 106.087 47.426 106.656 48.014C107.226 48.5927 107.51 49.4047 107.51 50.45V55H105.55V50.716C105.55 50.1 105.396 49.6287 105.088 49.302C104.78 48.966 104.36 48.798 103.828 48.798C103.287 48.798 102.858 48.966 102.54 49.302C102.232 49.6287 102.078 50.1 102.078 50.716V55H100.118V47.244H102.078V48.21C102.34 47.874 102.671 47.6127 103.072 47.426C103.483 47.23 103.931 47.132 104.416 47.132ZM111.656 48.854V52.606C111.656 52.8673 111.717 53.0587 111.838 53.18C111.969 53.292 112.184 53.348 112.482 53.348H113.392V55H112.16C110.508 55 109.682 54.1973 109.682 52.592V48.854H108.758V47.244H109.682V45.326H111.656V47.244H113.392V48.854H111.656Z" fill="white"/>
<path opacity="0.5" d="M5.53139 205.098C4.87806 205.098 4.29006 204.986 3.76739 204.762C3.24472 204.529 2.83406 204.202 2.53539 203.782C2.23672 203.362 2.08739 202.872 2.08739 202.312H3.79539C3.83272 202.732 3.99606 203.077 4.28539 203.348C4.58406 203.619 4.99939 203.754 5.53139 203.754C6.08206 203.754 6.51139 203.623 6.81939 203.362C7.12739 203.091 7.28139 202.746 7.28139 202.326C7.28139 201.999 7.18339 201.733 6.98739 201.528C6.80072 201.323 6.56272 201.164 6.27339 201.052C5.99339 200.94 5.60139 200.819 5.09739 200.688C4.46272 200.52 3.94472 200.352 3.54339 200.184C3.15139 200.007 2.81539 199.736 2.53539 199.372C2.25539 199.008 2.11539 198.523 2.11539 197.916C2.11539 197.356 2.25539 196.866 2.53539 196.446C2.81539 196.026 3.20739 195.704 3.71139 195.48C4.21539 195.256 4.79872 195.144 5.46139 195.144C6.40406 195.144 7.17406 195.382 7.77139 195.858C8.37806 196.325 8.71406 196.969 8.77939 197.79H7.01539C6.98739 197.435 6.81939 197.132 6.51139 196.88C6.20339 196.628 5.79739 196.502 5.29339 196.502C4.83606 196.502 4.46272 196.619 4.17339 196.852C3.88406 197.085 3.73939 197.421 3.73939 197.86C3.73939 198.159 3.82806 198.406 4.00539 198.602C4.19206 198.789 4.42539 198.938 4.70539 199.05C4.98539 199.162 5.36806 199.283 5.85339 199.414C6.49739 199.591 7.02006 199.769 7.42139 199.946C7.83206 200.123 8.17739 200.399 8.45739 200.772C8.74672 201.136 8.89139 201.626 8.89139 202.242C8.89139 202.737 8.75606 203.203 8.48539 203.642C8.22406 204.081 7.83672 204.435 7.32339 204.706C6.81939 204.967 6.22206 205.098 5.53139 205.098ZM21.0226 195.27V205H19.4266V198.336L16.4586 205H15.3526L12.3706 198.336V205H10.7746V195.27H12.4966L15.9126 202.9L19.3146 195.27H21.0226ZM26.3263 205.098C25.673 205.098 25.085 204.986 24.5623 204.762C24.0396 204.529 23.629 204.202 23.3303 203.782C23.0316 203.362 22.8823 202.872 22.8823 202.312H24.5903C24.6276 202.732 24.791 203.077 25.0803 203.348C25.379 203.619 25.7943 203.754 26.3263 203.754C26.877 203.754 27.3063 203.623 27.6143 203.362C27.9223 203.091 28.0763 202.746 28.0763 202.326C28.0763 201.999 27.9783 201.733 27.7823 201.528C27.5956 201.323 27.3576 201.164 27.0683 201.052C26.7883 200.94 26.3963 200.819 25.8923 200.688C25.2576 200.52 24.7396 200.352 24.3383 200.184C23.9463 200.007 23.6103 199.736 23.3303 199.372C23.0503 199.008 22.9103 198.523 22.9103 197.916C22.9103 197.356 23.0503 196.866 23.3303 196.446C23.6103 196.026 24.0023 195.704 24.5063 195.48C25.0103 195.256 25.5936 195.144 26.2563 195.144C27.199 195.144 27.969 195.382 28.5663 195.858C29.173 196.325 29.509 196.969 29.5743 197.79H27.8103C27.7823 197.435 27.6143 197.132 27.3063 196.88C26.9983 196.628 26.5923 196.502 26.0883 196.502C25.631 196.502 25.2576 196.619 24.9683 196.852C24.679 197.085 24.5343 197.421 24.5343 197.86C24.5343 198.159 24.623 198.406 24.8003 198.602C24.987 198.789 25.2203 198.938 25.5003 199.05C25.7803 199.162 26.163 199.283 26.6483 199.414C27.2923 199.591 27.815 199.769 28.2163 199.946C28.627 200.123 28.9723 200.399 29.2523 200.772C29.5416 201.136 29.6863 201.626 29.6863 202.242C29.6863 202.737 29.551 203.203 29.2803 203.642C29.019 204.081 28.6316 204.435 28.1183 204.706C27.6143 204.967 27.017 205.098 26.3263 205.098ZM43.5923 195.27L39.9383 205H38.0903L34.4223 195.27H36.1303L39.0143 203.362L41.9123 195.27H43.5923ZM51.997 200.954C51.997 201.243 51.9783 201.505 51.941 201.738H46.047C46.0936 202.354 46.3223 202.849 46.733 203.222C47.1436 203.595 47.6476 203.782 48.245 203.782C49.1036 203.782 49.7103 203.423 50.065 202.704H51.787C51.5536 203.413 51.129 203.997 50.513 204.454C49.9063 204.902 49.1503 205.126 48.245 205.126C47.5076 205.126 46.845 204.963 46.257 204.636C45.6783 204.3 45.221 203.833 44.885 203.236C44.5583 202.629 44.395 201.929 44.395 201.136C44.395 200.343 44.5536 199.647 44.871 199.05C45.1976 198.443 45.6503 197.977 46.229 197.65C46.817 197.323 47.489 197.16 48.245 197.16C48.973 197.16 49.6216 197.319 50.191 197.636C50.7603 197.953 51.2036 198.401 51.521 198.98C51.8383 199.549 51.997 200.207 51.997 200.954ZM50.331 200.45C50.3216 199.862 50.1116 199.391 49.701 199.036C49.2903 198.681 48.7816 198.504 48.175 198.504C47.6243 198.504 47.153 198.681 46.761 199.036C46.369 199.381 46.1356 199.853 46.061 200.45H50.331ZM55.1636 198.406C55.3969 198.014 55.7049 197.711 56.0876 197.496C56.4796 197.272 56.9416 197.16 57.4736 197.16V198.812H57.0676C56.4422 198.812 55.9662 198.971 55.6396 199.288C55.3222 199.605 55.1636 200.156 55.1636 200.94V205H53.5676V197.286H55.1636V198.406ZM59.7526 196.264C59.4633 196.264 59.2206 196.166 59.0246 195.97C58.8286 195.774 58.7306 195.531 58.7306 195.242C58.7306 194.953 58.8286 194.71 59.0246 194.514C59.2206 194.318 59.4633 194.22 59.7526 194.22C60.0326 194.22 60.2706 194.318 60.4666 194.514C60.6626 194.71 60.7606 194.953 60.7606 195.242C60.7606 195.531 60.6626 195.774 60.4666 195.97C60.2706 196.166 60.0326 196.264 59.7526 196.264ZM60.5366 197.286V205H58.9406V197.286H60.5366ZM65.866 198.588H64.438V205H62.828V198.588H61.918V197.286H62.828V196.74C62.828 195.853 63.0614 195.209 63.528 194.808C64.004 194.397 64.746 194.192 65.754 194.192V195.522C65.2687 195.522 64.928 195.615 64.732 195.802C64.536 195.979 64.438 196.292 64.438 196.74V197.286H65.866V198.588ZM68.0925 196.264C67.8031 196.264 67.5605 196.166 67.3645 195.97C67.1685 195.774 67.0705 195.531 67.0705 195.242C67.0705 194.953 67.1685 194.71 67.3645 194.514C67.5605 194.318 67.8031 194.22 68.0925 194.22C68.3725 194.22 68.6105 194.318 68.8065 194.514C69.0025 194.71 69.1005 194.953 69.1005 195.242C69.1005 195.531 69.0025 195.774 68.8065 195.97C68.6105 196.166 68.3725 196.264 68.0925 196.264ZM68.8765 197.286V205H67.2805V197.286H68.8765ZM70.4399 201.136C70.4399 200.343 70.5985 199.647 70.9159 199.05C71.2425 198.443 71.6905 197.977 72.2599 197.65C72.8292 197.323 73.4825 197.16 74.2199 197.16C75.1532 197.16 75.9232 197.384 76.5299 197.832C77.1459 198.271 77.5612 198.901 77.7759 199.722H76.0539C75.9139 199.339 75.6899 199.041 75.3819 198.826C75.0739 198.611 74.6865 198.504 74.2199 198.504C73.5665 198.504 73.0439 198.737 72.6519 199.204C72.2692 199.661 72.0779 200.305 72.0779 201.136C72.0779 201.967 72.2692 202.615 72.6519 203.082C73.0439 203.549 73.5665 203.782 74.2199 203.782C75.1439 203.782 75.7552 203.376 76.0539 202.564H77.7759C77.5519 203.348 77.1319 203.973 76.5159 204.44C75.8999 204.897 75.1345 205.126 74.2199 205.126C73.4825 205.126 72.8292 204.963 72.2599 204.636C71.6905 204.3 71.2425 203.833 70.9159 203.236C70.5985 202.629 70.4399 201.929 70.4399 201.136ZM78.8344 201.108C78.8344 200.333 78.9931 199.647 79.3104 199.05C79.6371 198.453 80.0757 197.991 80.6264 197.664C81.1864 197.328 81.8024 197.16 82.4744 197.16C83.0811 197.16 83.6084 197.281 84.0564 197.524C84.5137 197.757 84.8777 198.051 85.1484 198.406V197.286H86.7584V205H85.1484V203.852C84.8777 204.216 84.5091 204.519 84.0424 204.762C83.5757 205.005 83.0437 205.126 82.4464 205.126C81.7837 205.126 81.1771 204.958 80.6264 204.622C80.0757 204.277 79.6371 203.801 79.3104 203.194C78.9931 202.578 78.8344 201.883 78.8344 201.108ZM85.1484 201.136C85.1484 200.604 85.0364 200.142 84.8124 199.75C84.5977 199.358 84.3131 199.059 83.9584 198.854C83.6037 198.649 83.2211 198.546 82.8104 198.546C82.3997 198.546 82.0171 198.649 81.6624 198.854C81.3077 199.05 81.0184 199.344 80.7944 199.736C80.5797 200.119 80.4724 200.576 80.4724 201.108C80.4724 201.64 80.5797 202.107 80.7944 202.508C81.0184 202.909 81.3077 203.217 81.6624 203.432C82.0264 203.637 82.4091 203.74 82.8104 203.74C83.2211 203.74 83.6037 203.637 83.9584 203.432C84.3131 203.227 84.5977 202.928 84.8124 202.536C85.0364 202.135 85.1484 201.668 85.1484 201.136ZM90.7167 198.588V202.858C90.7167 203.147 90.782 203.357 90.9127 203.488C91.0527 203.609 91.286 203.67 91.6127 203.67H92.5927V205H91.3327C90.614 205 90.0634 204.832 89.6807 204.496C89.298 204.16 89.1067 203.614 89.1067 202.858V198.588H88.1967V197.286H89.1067V195.368H90.7167V197.286H92.5927V198.588H90.7167ZM94.8757 196.264C94.5863 196.264 94.3437 196.166 94.1477 195.97C93.9517 195.774 93.8537 195.531 93.8537 195.242C93.8537 194.953 93.9517 194.71 94.1477 194.514C94.3437 194.318 94.5863 194.22 94.8757 194.22C95.1557 194.22 95.3937 194.318 95.5897 194.514C95.7857 194.71 95.8837 194.953 95.8837 195.242C95.8837 195.531 95.7857 195.774 95.5897 195.97C95.3937 196.166 95.1557 196.264 94.8757 196.264ZM95.6597 197.286V205H94.0637V197.286H95.6597ZM101.101 205.126C100.373 205.126 99.7151 204.963 99.1271 204.636C98.5391 204.3 98.0771 203.833 97.7411 203.236C97.4051 202.629 97.2371 201.929 97.2371 201.136C97.2371 200.352 97.4097 199.657 97.7551 199.05C98.1004 198.443 98.5717 197.977 99.1691 197.65C99.7664 197.323 100.434 197.16 101.171 197.16C101.908 197.16 102.576 197.323 103.173 197.65C103.77 197.977 104.242 198.443 104.587 199.05C104.932 199.657 105.105 200.352 105.105 201.136C105.105 201.92 104.928 202.615 104.573 203.222C104.218 203.829 103.733 204.3 103.117 204.636C102.51 204.963 101.838 205.126 101.101 205.126ZM101.101 203.74C101.512 203.74 101.894 203.642 102.249 203.446C102.613 203.25 102.907 202.956 103.131 202.564C103.355 202.172 103.467 201.696 103.467 201.136C103.467 200.576 103.36 200.105 103.145 199.722C102.93 199.33 102.646 199.036 102.291 198.84C101.936 198.644 101.554 198.546 101.143 198.546C100.732 198.546 100.35 198.644 99.9951 198.84C99.6497 199.036 99.3744 199.33 99.1691 199.722C98.9637 200.105 98.8611 200.576 98.8611 201.136C98.8611 201.967 99.0711 202.611 99.4911 203.068C99.9204 203.516 100.457 203.74 101.101 203.74ZM110.575 197.16C111.181 197.16 111.723 197.286 112.199 197.538C112.684 197.79 113.062 198.163 113.333 198.658C113.603 199.153 113.739 199.75 113.739 200.45V205H112.157V200.688C112.157 199.997 111.984 199.47 111.639 199.106C111.293 198.733 110.822 198.546 110.225 198.546C109.627 198.546 109.151 198.733 108.797 199.106C108.451 199.47 108.279 199.997 108.279 200.688V205H106.683V197.286H108.279V198.168C108.54 197.851 108.871 197.603 109.273 197.426C109.683 197.249 110.117 197.16 110.575 197.16Z" fill="white"/>
<rect opacity="0.15" x="42" y="150" width="32" height="32" rx="8" fill="white"/>
<g opacity="0.8">
<path d="M53.8337 159.334V172.667H62.167V159.334H53.8337ZM53.0003 157.667H63.0003C63.2213 157.667 63.4333 157.755 63.5896 157.911C63.7459 158.067 63.8337 158.279 63.8337 158.5V173.5C63.8337 173.721 63.7459 173.933 63.5896 174.09C63.4333 174.246 63.2213 174.334 63.0003 174.334H53.0003C52.7793 174.334 52.5674 174.246 52.4111 174.09C52.2548 173.933 52.167 173.721 52.167 173.5V158.5C52.167 158.279 52.2548 158.067 52.4111 157.911C52.5674 157.755 52.7793 157.667 53.0003 157.667ZM58.0003 170.167C58.2213 170.167 58.4333 170.255 58.5896 170.411C58.7459 170.567 58.8337 170.779 58.8337 171C58.8337 171.221 58.7459 171.433 58.5896 171.59C58.4333 171.746 58.2213 171.834 58.0003 171.834C57.7793 171.834 57.5674 171.746 57.4111 171.59C57.2548 171.433 57.167 171.221 57.167 171C57.167 170.779 57.2548 170.567 57.4111 170.411C57.5674 170.255 57.7793 170.167 58.0003 170.167Z" fill="white" fill-opacity="0.3"/>
</g>
<path opacity="0.5" d="M32.6701 345.27V355H31.0741V348.336L28.1061 355H27.0001L24.0181 348.336V355H22.4221V345.27H24.1441L27.5601 352.9L30.9621 345.27H32.6701ZM41.7118 347.286L36.9798 358.626H35.3278L36.8958 354.874L33.8578 347.286H35.6358L37.8058 353.166L40.0598 347.286H41.7118ZM49.7309 345.27C50.7669 345.27 51.6723 345.471 52.4469 345.872C53.2309 346.264 53.8329 346.833 54.2529 347.58C54.6823 348.317 54.8969 349.181 54.8969 350.17C54.8969 351.159 54.6823 352.018 54.2529 352.746C53.8329 353.474 53.2309 354.034 52.4469 354.426C51.6723 354.809 50.7669 355 49.7309 355H46.5529V345.27H49.7309ZM49.7309 353.698C50.8696 353.698 51.7423 353.39 52.3489 352.774C52.9556 352.158 53.2589 351.29 53.2589 350.17C53.2589 349.041 52.9556 348.159 52.3489 347.524C51.7423 346.889 50.8696 346.572 49.7309 346.572H48.1489V353.698H49.7309ZM63.5487 350.954C63.5487 351.243 63.53 351.505 63.4927 351.738H57.5987C57.6454 352.354 57.874 352.849 58.2847 353.222C58.6954 353.595 59.1994 353.782 59.7967 353.782C60.6554 353.782 61.262 353.423 61.6167 352.704H63.3387C63.1054 353.413 62.6807 353.997 62.0647 354.454C61.458 354.902 60.702 355.126 59.7967 355.126C59.0594 355.126 58.3967 354.963 57.8087 354.636C57.23 354.3 56.7727 353.833 56.4367 353.236C56.11 352.629 55.9467 351.929 55.9467 351.136C55.9467 350.343 56.1054 349.647 56.4227 349.05C56.7494 348.443 57.202 347.977 57.7807 347.65C58.3687 347.323 59.0407 347.16 59.7967 347.16C60.5247 347.16 61.1734 347.319 61.7427 347.636C62.312 347.953 62.7554 348.401 63.0727 348.98C63.39 349.549 63.5487 350.207 63.5487 350.954ZM61.8827 350.45C61.8734 349.862 61.6634 349.391 61.2527 349.036C60.842 348.681 60.3334 348.504 59.7267 348.504C59.176 348.504 58.7047 348.681 58.3127 349.036C57.9207 349.381 57.6874 349.853 57.6127 350.45H61.8827ZM66.9813 348.588V352.858C66.9813 353.147 67.0467 353.357 67.1773 353.488C67.3173 353.609 67.5507 353.67 67.8773 353.67H68.8573V355H67.5973C66.8787 355 66.328 354.832 65.9453 354.496C65.5627 354.16 65.3713 353.614 65.3713 352.858V348.588H64.4613V347.286H65.3713V345.368H66.9813V347.286H68.8573V348.588H66.9813ZM69.7963 351.108C69.7963 350.333 69.955 349.647 70.2723 349.05C70.599 348.453 71.0377 347.991 71.5883 347.664C72.1483 347.328 72.7643 347.16 73.4363 347.16C74.043 347.16 74.5703 347.281 75.0183 347.524C75.4757 347.757 75.8397 348.051 76.1103 348.406V347.286H77.7203V355H76.1103V353.852C75.8397 354.216 75.471 354.519 75.0043 354.762C74.5377 355.005 74.0057 355.126 73.4083 355.126C72.7457 355.126 72.139 354.958 71.5883 354.622C71.0377 354.277 70.599 353.801 70.2723 353.194C69.955 352.578 69.7963 351.883 69.7963 351.108ZM76.1103 351.136C76.1103 350.604 75.9983 350.142 75.7743 349.75C75.5597 349.358 75.275 349.059 74.9203 348.854C74.5657 348.649 74.183 348.546 73.7723 348.546C73.3617 348.546 72.979 348.649 72.6243 348.854C72.2697 349.05 71.9803 349.344 71.7563 349.736C71.5417 350.119 71.4343 350.576 71.4343 351.108C71.4343 351.64 71.5417 352.107 71.7563 352.508C71.9803 352.909 72.2697 353.217 72.6243 353.432C72.9883 353.637 73.371 353.74 73.7723 353.74C74.183 353.74 74.5657 353.637 74.9203 353.432C75.275 353.227 75.5597 352.928 75.7743 352.536C75.9983 352.135 76.1103 351.668 76.1103 351.136ZM80.6286 346.264C80.3393 346.264 80.0966 346.166 79.9006 345.97C79.7046 345.774 79.6066 345.531 79.6066 345.242C79.6066 344.953 79.7046 344.71 79.9006 344.514C80.0966 344.318 80.3393 344.22 80.6286 344.22C80.9086 344.22 81.1466 344.318 81.3426 344.514C81.5386 344.71 81.6366 344.953 81.6366 345.242C81.6366 345.531 81.5386 345.774 81.3426 345.97C81.1466 346.166 80.9086 346.264 80.6286 346.264ZM81.4126 347.286V355H79.8166V347.286H81.4126ZM85.104 344.64V355H83.508V344.64H85.104ZM89.9994 355.126C89.3927 355.126 88.8467 355.019 88.3614 354.804C87.8854 354.58 87.5074 354.281 87.2274 353.908C86.9474 353.525 86.7981 353.101 86.7794 352.634H88.4314C88.4594 352.961 88.6134 353.236 88.8934 353.46C89.1827 353.675 89.5421 353.782 89.9714 353.782C90.4194 353.782 90.7647 353.698 91.0074 353.53C91.2594 353.353 91.3854 353.129 91.3854 352.858C91.3854 352.569 91.2454 352.354 90.9654 352.214C90.6947 352.074 90.2607 351.92 89.6634 351.752C89.0847 351.593 88.6134 351.439 88.2494 351.29C87.8854 351.141 87.5681 350.912 87.2974 350.604C87.0361 350.296 86.9054 349.89 86.9054 349.386C86.9054 348.975 87.0267 348.602 87.2694 348.266C87.5121 347.921 87.8574 347.65 88.3054 347.454C88.7627 347.258 89.2854 347.16 89.8734 347.16C90.7507 347.16 91.4554 347.384 91.9874 347.832C92.5287 348.271 92.8181 348.873 92.8554 349.638H91.2594C91.2314 349.293 91.0914 349.017 90.8394 348.812C90.5874 348.607 90.2467 348.504 89.8174 348.504C89.3974 348.504 89.0754 348.583 88.8514 348.742C88.6274 348.901 88.5154 349.111 88.5154 349.372C88.5154 349.577 88.5901 349.75 88.7394 349.89C88.8887 350.03 89.0707 350.142 89.2854 350.226C89.5001 350.301 89.8174 350.399 90.2374 350.52C90.7974 350.669 91.2547 350.823 91.6094 350.982C91.9734 351.131 92.2861 351.355 92.5474 351.654C92.8087 351.953 92.9441 352.349 92.9534 352.844C92.9534 353.283 92.8321 353.675 92.5894 354.02C92.3467 354.365 92.0014 354.636 91.5534 354.832C91.1147 355.028 90.5967 355.126 89.9994 355.126Z" fill="white"/>
<rect opacity="0.15" x="41" y="300" width="32" height="32" rx="8" fill="white"/>
<g opacity="0.8">
<path d="M52.8333 311V308.5C52.8333 308.279 52.9211 308.067 53.0774 307.911C53.2337 307.755 53.4457 307.667 53.6667 307.667H63.6667C63.8877 307.667 64.0996 307.755 64.2559 307.911C64.4122 308.067 64.5 308.279 64.5 308.5V320.167C64.5 320.388 64.4122 320.6 64.2559 320.756C64.0996 320.913 63.8877 321 63.6667 321H61.1667V323.5C61.1667 323.96 60.7917 324.334 60.3275 324.334H50.3392C50.2293 324.334 50.1203 324.313 50.0186 324.272C49.9169 324.23 49.8244 324.169 49.7464 324.091C49.6684 324.014 49.6065 323.922 49.5642 323.82C49.5219 323.719 49.5001 323.61 49.5 323.5L49.5025 311.834C49.5025 311.374 49.8775 311 50.3408 311H52.8333ZM51.1683 312.667L51.1667 322.667H59.5V312.667H51.1683ZM54.5 311H61.1667V319.334H62.8333V309.334H54.5V311ZM52.8333 315.167H57.8333V316.834H52.8333V315.167ZM52.8333 318.5H57.8333V320.167H52.8333V318.5Z" fill="white" fill-opacity="0.3"/>
</g>
<path opacity="0.5" d="M7.22752 503.012H3.15352L2.45352 505H0.787523L4.27352 495.256H6.12152L9.60752 505H7.92752L7.22752 503.012ZM6.77952 501.71L5.19752 497.188L3.60152 501.71H6.77952ZM10.5912 501.108C10.5912 500.333 10.7499 499.647 11.0672 499.05C11.3939 498.453 11.8326 497.991 12.3832 497.664C12.9432 497.328 13.5639 497.16 14.2452 497.16C14.7492 497.16 15.2439 497.272 15.7292 497.496C16.2239 497.711 16.6159 498 16.9052 498.364V494.64H18.5152V505H16.9052V503.838C16.6439 504.211 16.2799 504.519 15.8132 504.762C15.3559 505.005 14.8286 505.126 14.2312 505.126C13.5592 505.126 12.9432 504.958 12.3832 504.622C11.8326 504.277 11.3939 503.801 11.0672 503.194C10.7499 502.578 10.5912 501.883 10.5912 501.108ZM16.9052 501.136C16.9052 500.604 16.7932 500.142 16.5692 499.75C16.3546 499.358 16.0699 499.059 15.7152 498.854C15.3606 498.649 14.9779 498.546 14.5672 498.546C14.1566 498.546 13.7739 498.649 13.4192 498.854C13.0646 499.05 12.7752 499.344 12.5512 499.736C12.3366 500.119 12.2292 500.576 12.2292 501.108C12.2292 501.64 12.3366 502.107 12.5512 502.508C12.7752 502.909 13.0646 503.217 13.4192 503.432C13.7832 503.637 14.1659 503.74 14.5672 503.74C14.9779 503.74 15.3606 503.637 15.7152 503.432C16.0699 503.227 16.3546 502.928 16.5692 502.536C16.7932 502.135 16.9052 501.668 16.9052 501.136ZM20.0795 501.108C20.0795 500.333 20.2382 499.647 20.5555 499.05C20.8822 498.453 21.3209 497.991 21.8715 497.664C22.4315 497.328 23.0522 497.16 23.7335 497.16C24.2375 497.16 24.7322 497.272 25.2175 497.496C25.7122 497.711 26.1042 498 26.3935 498.364V494.64H28.0035V505H26.3935V503.838C26.1322 504.211 25.7682 504.519 25.3015 504.762C24.8442 505.005 24.3169 505.126 23.7195 505.126C23.0475 505.126 22.4315 504.958 21.8715 504.622C21.3209 504.277 20.8822 503.801 20.5555 503.194C20.2382 502.578 20.0795 501.883 20.0795 501.108ZM26.3935 501.136C26.3935 500.604 26.2815 500.142 26.0575 499.75C25.8429 499.358 25.5582 499.059 25.2035 498.854C24.8489 498.649 24.4662 498.546 24.0555 498.546C23.6449 498.546 23.2622 498.649 22.9075 498.854C22.5529 499.05 22.2635 499.344 22.0395 499.736C21.8249 500.119 21.7175 500.576 21.7175 501.108C21.7175 501.64 21.8249 502.107 22.0395 502.508C22.2635 502.909 22.5529 503.217 22.9075 503.432C23.2715 503.637 23.6542 503.74 24.0555 503.74C24.4662 503.74 24.8489 503.637 25.2035 503.432C25.5582 503.227 25.8429 502.928 26.0575 502.536C26.2815 502.135 26.3935 501.668 26.3935 501.136ZM43.9845 495.27V505H42.3885V498.336L39.4205 505H38.3145L35.3325 498.336V505H33.7365V495.27H35.4585L38.8745 502.9L42.2765 495.27H43.9845ZM53.0262 497.286L48.2942 508.626H46.6422L48.2102 504.874L45.1722 497.286H46.9502L49.1202 503.166L51.3742 497.286H53.0262ZM63.7334 503.012H59.6594L58.9594 505H57.2934L60.7794 495.256H62.6274L66.1134 505H64.4334L63.7334 503.012ZM63.2854 501.71L61.7034 497.188L60.1074 501.71H63.2854ZM67.0971 501.136C67.0971 500.343 67.2558 499.647 67.5731 499.05C67.8998 498.443 68.3478 497.977 68.9171 497.65C69.4864 497.323 70.1398 497.16 70.8771 497.16C71.8104 497.16 72.5804 497.384 73.1871 497.832C73.8031 498.271 74.2184 498.901 74.4331 499.722H72.7111C72.5711 499.339 72.3471 499.041 72.0391 498.826C71.7311 498.611 71.3438 498.504 70.8771 498.504C70.2238 498.504 69.7011 498.737 69.3091 499.204C68.9264 499.661 68.7351 500.305 68.7351 501.136C68.7351 501.967 68.9264 502.615 69.3091 503.082C69.7011 503.549 70.2238 503.782 70.8771 503.782C71.8011 503.782 72.4124 503.376 72.7111 502.564H74.4331C74.2091 503.348 73.7891 503.973 73.1731 504.44C72.5571 504.897 71.7918 505.126 70.8771 505.126C70.1398 505.126 69.4864 504.963 68.9171 504.636C68.3478 504.3 67.8998 503.833 67.5731 503.236C67.2558 502.629 67.0971 501.929 67.0971 501.136ZM75.4916 501.136C75.4916 500.343 75.6503 499.647 75.9676 499.05C76.2943 498.443 76.7423 497.977 77.3116 497.65C77.881 497.323 78.5343 497.16 79.2716 497.16C80.205 497.16 80.975 497.384 81.5816 497.832C82.1976 498.271 82.613 498.901 82.8276 499.722H81.1056C80.9656 499.339 80.7416 499.041 80.4336 498.826C80.1256 498.611 79.7383 498.504 79.2716 498.504C78.6183 498.504 78.0956 498.737 77.7036 499.204C77.321 499.661 77.1296 500.305 77.1296 501.136C77.1296 501.967 77.321 502.615 77.7036 503.082C78.0956 503.549 78.6183 503.782 79.2716 503.782C80.1956 503.782 80.807 503.376 81.1056 502.564H82.8276C82.6036 503.348 82.1836 503.973 81.5676 504.44C80.9516 504.897 80.1863 505.126 79.2716 505.126C78.5343 505.126 77.881 504.963 77.3116 504.636C76.7423 504.3 76.2943 503.833 75.9676 503.236C75.6503 502.629 75.4916 501.929 75.4916 501.136ZM87.7642 505.126C87.0362 505.126 86.3782 504.963 85.7902 504.636C85.2022 504.3 84.7402 503.833 84.4042 503.236C84.0682 502.629 83.9002 501.929 83.9002 501.136C83.9002 500.352 84.0728 499.657 84.4182 499.05C84.7635 498.443 85.2348 497.977 85.8322 497.65C86.4295 497.323 87.0968 497.16 87.8342 497.16C88.5715 497.16 89.2388 497.323 89.8362 497.65C90.4335 497.977 90.9048 498.443 91.2502 499.05C91.5955 499.657 91.7682 500.352 91.7682 501.136C91.7682 501.92 91.5908 502.615 91.2362 503.222C90.8815 503.829 90.3962 504.3 89.7802 504.636C89.1735 504.963 88.5015 505.126 87.7642 505.126ZM87.7642 503.74C88.1748 503.74 88.5575 503.642 88.9122 503.446C89.2762 503.25 89.5702 502.956 89.7942 502.564C90.0182 502.172 90.1302 501.696 90.1302 501.136C90.1302 500.576 90.0228 500.105 89.8082 499.722C89.5935 499.33 89.3088 499.036 88.9542 498.84C88.5995 498.644 88.2168 498.546 87.8062 498.546C87.3955 498.546 87.0128 498.644 86.6582 498.84C86.3128 499.036 86.0375 499.33 85.8322 499.722C85.6268 500.105 85.5242 500.576 85.5242 501.136C85.5242 501.967 85.7342 502.611 86.1542 503.068C86.5835 503.516 87.1202 503.74 87.7642 503.74ZM100.332 497.286V505H98.7359V504.09C98.4839 504.407 98.1526 504.659 97.7419 504.846C97.3406 505.023 96.9112 505.112 96.4539 505.112C95.8472 505.112 95.3012 504.986 94.8159 504.734C94.3399 504.482 93.9619 504.109 93.6819 503.614C93.4112 503.119 93.2759 502.522 93.2759 501.822V497.286H94.8579V501.584C94.8579 502.275 95.0306 502.807 95.3759 503.18C95.7212 503.544 96.1926 503.726 96.7899 503.726C97.3872 503.726 97.8586 503.544 98.2039 503.18C98.5586 502.807 98.7359 502.275 98.7359 501.584V497.286H100.332ZM106.33 497.16C106.936 497.16 107.478 497.286 107.954 497.538C108.439 497.79 108.817 498.163 109.088 498.658C109.358 499.153 109.494 499.75 109.494 500.45V505H107.912V500.688C107.912 499.997 107.739 499.47 107.394 499.106C107.048 498.733 106.577 498.546 105.98 498.546C105.382 498.546 104.906 498.733 104.552 499.106C104.206 499.47 104.034 499.997 104.034 500.688V505H102.438V497.286H104.034V498.168C104.295 497.851 104.626 497.603 105.028 497.426C105.438 497.249 105.872 497.16 106.33 497.16ZM113.391 498.588V502.858C113.391 503.147 113.457 503.357 113.587 503.488C113.727 503.609 113.961 503.67 114.287 503.67H115.267V505H114.007C113.289 505 112.738 504.832 112.355 504.496C111.973 504.16 111.781 503.614 111.781 502.858V498.588H110.871V497.286H111.781V495.368H113.391V497.286H115.267V498.588H113.391Z" fill="white"/>
<rect opacity="0.15" x="42" y="450" width="32" height="32" rx="8" fill="white"/>
<g opacity="0.8">
<path d="M50.5003 458.5H65.5003C65.7213 458.5 65.9333 458.588 66.0896 458.744C66.2459 458.9 66.3337 459.112 66.3337 459.333V472.667C66.3337 472.888 66.2459 473.1 66.0896 473.256C65.9333 473.412 65.7213 473.5 65.5003 473.5H50.5003C50.2793 473.5 50.0674 473.412 49.9111 473.256C49.7548 473.1 49.667 472.888 49.667 472.667V459.333C49.667 459.112 49.7548 458.9 49.9111 458.744C50.0674 458.588 50.2793 458.5 50.5003 458.5ZM64.667 465.167H51.3337V471.833H64.667V465.167ZM64.667 463.5V460.167H51.3337V463.5H64.667ZM59.667 468.5H63.0003V470.167H59.667V468.5Z" fill="white" fill-opacity="0.3"/>
</g>
<rect opacity="0.2" x="59" y="80" width="50" height="2" rx="1" transform="rotate(90 59 80)" fill="white"/>
<rect opacity="0.2" x="59" y="230" width="50" height="2" rx="1" transform="rotate(90 59 230)" fill="white"/>
<rect opacity="0.2" x="59" y="380" width="50" height="2" rx="1" transform="rotate(90 59 380)" fill="white"/>
</svg>
