<svg width="100" height="100" viewBox="0 0 100 100" fill="none" xmlns="http://www.w3.org/2000/svg">
<path d="M46.4824 67.965C45.3517 67.965 44.3466 67.4624 43.7185 66.7088L24.7486 46.1057C23.3667 44.5983 23.4925 42.2112 24.9999 40.8293C26.5073 39.4474 28.8944 39.5731 30.2763 41.0806L46.6079 58.7941L91.8342 13.6936C93.3416 12.1861 95.7286 12.1861 97.1106 13.6936C98.4925 15.201 98.618 17.5881 97.1106 18.97L49.1207 66.8344C48.4924 67.5882 47.4875 67.965 46.4824 67.965Z" fill="#06E594"/>
<path d="M50.0001 100C22.4874 100 0 77.5126 0 50.0001C0 22.4876 22.4874 0 50.0001 0C52.1359 0 53.7689 1.63321 53.7689 3.76874C53.7689 5.90426 52.1357 7.53747 50.0001 7.53747C26.6331 7.53747 7.53771 26.6329 7.53771 49.9999C7.53771 73.3669 26.6331 92.4623 50.0001 92.4623C73.3671 92.4623 92.4625 73.3669 92.4625 49.9999C92.4625 47.8641 94.0957 46.2311 96.2313 46.2311C98.3668 46.2311 100 47.8644 100 49.9999C100 77.5126 77.5126 100 50.0001 100Z" fill="#06E594"/>
</svg>
