<svg width="100" height="100" viewBox="0 0 100 100" fill="none" xmlns="http://www.w3.org/2000/svg">
<path d="M85.377 14.6377C65.8796 -4.85971 34.1447 -4.85971 14.6472 14.6377C5.20259 24.0861 0 36.6454 0 50.0025C0 63.3597 5.20259 75.919 14.6472 85.3636C24.3979 95.1143 37.205 99.9876 50.012 99.9876C62.819 99.9876 75.6263 95.1143 85.3768 85.3636C104.874 65.8662 104.874 34.1389 85.377 14.6377ZM79.8992 79.8858C63.4196 96.3655 36.6045 96.3655 20.1248 79.8858C12.1446 71.9057 7.74773 61.2911 7.74773 50.0025C7.74773 38.714 12.1446 28.0994 20.1248 20.1153C36.6045 3.63568 63.4196 3.63958 79.8992 20.1153C96.375 36.595 96.375 63.4101 79.8992 79.8858Z" fill="#F5503E"/>
<path d="M66.7022 60.7061L55.7351 49.7546L66.7022 38.8032C68.213 37.2925 68.213 34.8403 66.7061 33.3254C65.1915 31.8069 62.7393 31.8108 61.2246 33.3215L50.2499 44.2808L39.2752 33.3215C37.7605 31.8108 35.3084 31.8069 33.7937 33.3254C32.283 34.8401 32.283 37.2923 33.7976 38.8032L44.7647 49.7546L33.7976 60.7061C32.283 62.2168 32.283 64.669 33.7937 66.1838C34.5492 66.943 35.5447 67.3188 36.5365 67.3188C37.5283 67.3188 38.5199 66.9391 39.2754 66.1875L50.2501 55.2283L61.2248 66.1875C61.9803 66.943 62.9719 67.3188 63.9637 67.3188C64.9555 67.3188 65.951 66.9391 66.7065 66.1838C68.2169 64.669 68.2169 62.2168 66.7022 60.7061Z" fill="#F5503E"/>
</svg>
