<svg width="41" height="35" viewBox="0 0 41 35" fill="none" xmlns="http://www.w3.org/2000/svg">
<path fill-rule="evenodd" clip-rule="evenodd" d="M24.9593 31.3407C27.4523 31.558 30.0502 31.7004 32.7457 31.7673C29.2982 33.788 24.8996 35.0006 20.1062 35.0006C17.0335 35.0006 14.1238 34.5011 11.5217 33.6114C15.1824 33.4262 18.7745 32.9112 22.2661 32.0652C23.1705 31.8461 24.0683 31.6037 24.9593 31.3407ZM1.21284 25.241C4.4588 26.8929 8.24287 28.2527 12.4981 29.2931C14.8569 29.8698 17.3651 30.3483 20.0113 30.7284C16.0114 31.5896 11.8874 31.9967 7.68473 31.9466C5.4157 30.5956 3.53559 28.8851 2.19716 26.9264C1.82581 26.383 1.49778 25.8201 1.21284 25.241ZM39.4161 24.6311C39.062 25.4372 38.6105 26.2131 38.0687 26.9508C37.2173 28.1099 36.1458 29.1753 34.895 30.1208C32.7002 30.0971 30.5676 30.0258 28.5009 29.9072C31.4624 28.8439 34.3324 27.5417 37.0805 26.008C37.9002 25.5506 38.6784 25.0898 39.4161 24.6311ZM34.1798 14.2616C36.2567 15.1037 37.9786 16.1305 39.2216 17.2885C39.377 17.4331 39.5248 17.5798 39.665 17.7285C39.804 17.8761 39.934 18.0324 40.0431 18.2034C40.3965 18.7573 40.6085 19.4101 40.629 20.1111C40.6265 20.285 40.6203 20.4583 40.6096 20.6307C40.5862 21.0092 40.542 21.3837 40.4807 21.7545C39.3073 22.5698 38.0098 23.4032 36.5899 24.222C32.6507 26.494 28.4573 28.2684 24.0993 29.5108C20.121 29.1125 16.422 28.5164 13.0337 27.7255C8.19318 26.5957 3.9754 25.0683 0.482389 23.1833C0.231569 22.3561 0.0733996 21.5034 0.0194757 20.6307C0.00878094 20.4583 0.00258925 20.285 0 20.1111C0.0137343 19.6467 0.111338 19.2035 0.278401 18.7961C0.46584 18.3393 0.758313 17.9344 1.10471 17.5826C1.20231 17.4837 1.30318 17.3857 1.40743 17.2885C2.65049 16.1305 4.37234 15.1037 6.44926 14.2616V17.2188C5.12751 18.0226 4.37201 18.9524 4.37201 19.9432C4.37201 22.9902 11.5097 25.4602 20.3145 25.4602C29.1194 25.4602 36.2571 22.9902 36.2571 19.9432C36.2571 18.9524 35.5016 18.0226 34.1798 17.2188V14.2616Z" fill="white"/>
<path fill-rule="evenodd" clip-rule="evenodd" d="M17.7023 0.0475209C17.7863 0.1085 17.8232 0.215136 17.7948 0.314676L17.2473 2.2371C17.1915 2.43279 17.217 2.63862 17.3114 2.81152C17.427 2.91406 17.5388 3.02096 17.6467 3.13164C17.8581 3.23605 18.1104 3.23892 18.3285 3.1305L19.6357 2.48122C19.7255 2.4366 19.8336 2.45027 19.9092 2.51588L19.9841 2.58066C20.0749 2.65933 20.0961 2.79177 20.0339 2.89461L18.8527 4.84961C19.2477 5.66622 19.4769 6.57709 19.4969 7.53908L19.4983 7.67685V23.4962C14.7539 23.4327 10.5661 22.6235 7.89905 21.3998C6.98339 20.9797 6.39262 20.0764 6.36434 19.078L6.36328 19.003V7.67685C6.36328 4.07011 9.30364 1.14616 12.9309 1.14616C13.8709 1.14616 14.7648 1.34255 15.5733 1.69632L17.3897 0.0636654C17.477 -0.0146919 17.6074 -0.0214787 17.7023 0.0475209ZM13.7875 4.01155C13.1567 4.01155 12.6453 4.52481 12.6453 5.15776C12.6453 5.79072 13.1567 6.30387 13.7875 6.30387C14.4183 6.30387 14.9296 5.79072 14.9296 5.15776C14.9296 4.52481 14.4183 4.01155 13.7875 4.01155Z" fill="url(#paint0_linear)"/>
<path fill-rule="evenodd" clip-rule="evenodd" d="M33.135 6.40974C33.2185 6.46944 33.2552 6.57383 33.227 6.67127L32.6826 8.55332C32.6035 8.82662 32.689 9.12027 32.9032 9.31153C33.1363 9.51961 33.4756 9.56581 33.7577 9.4278L35.0574 8.7922C35.1468 8.74851 35.2541 8.76189 35.3293 8.82612L35.4037 8.88954C35.4941 8.96655 35.5151 9.09621 35.4533 9.19687L34.0458 11.4908C34.1979 11.9706 34.2963 12.4743 34.3338 12.995C34.3414 13.1 34.3474 13.2055 34.3505 13.3117L34.353 13.4715V19.0942C34.353 20.1085 33.7599 21.029 32.8361 21.4454C30.1987 22.6343 26.1231 23.4207 21.5096 23.493L21.293 23.4959V13.4715C21.293 9.86118 24.2165 6.93431 27.823 6.93431C29.0554 6.93431 30.2078 7.27618 31.191 7.87034L32.8243 6.42554C32.911 6.34884 33.0407 6.34219 33.135 6.40974ZM29.8104 9.78976C29.1832 9.78976 28.6747 10.3011 28.6747 10.9319C28.6747 11.5626 29.1832 12.0741 29.8104 12.0741C30.4376 12.0741 30.946 11.5626 30.946 10.9319C30.946 10.3011 30.4376 9.78976 29.8104 9.78976Z" fill="url(#paint1_linear)"/>
<defs>
<linearGradient id="paint0_linear" x1="11.0382" y1="23.4962" x2="24.8377" y2="-7.12625" gradientUnits="userSpaceOnUse">
<stop stop-color="#8478F8"/>
<stop offset="1" stop-color="white"/>
</linearGradient>
<linearGradient id="paint1_linear" x1="33.2637" y1="28.9108" x2="29.9247" y2="15.1741" gradientUnits="userSpaceOnUse">
<stop stop-color="#70AAF3"/>
<stop offset="1" stop-color="#A2DCFF"/>
</linearGradient>
</defs>
</svg>
