<svg width="32" height="32" viewBox="0 0 32 32" fill="none" xmlns="http://www.w3.org/2000/svg">
<rect width="32" height="32" rx="8" fill="#F7F7F7"/>
<path d="M8.49935 8.5H23.4993C23.7204 8.5 23.9323 8.5878 24.0886 8.74408C24.2449 8.90036 24.3327 9.11232 24.3327 9.33333V22.6667C24.3327 22.8877 24.2449 23.0996 24.0886 23.2559C23.9323 23.4122 23.7204 23.5 23.4993 23.5H8.49935C8.27834 23.5 8.06637 23.4122 7.91009 23.2559C7.75381 23.0996 7.66602 22.8877 7.66602 22.6667V9.33333C7.66602 9.11232 7.75381 8.90036 7.91009 8.74408C8.06637 8.5878 8.27834 8.5 8.49935 8.5ZM22.666 15.1667H9.33268V21.8333H22.666V15.1667ZM22.666 13.5V10.1667H9.33268V13.5H22.666ZM17.666 18.5H20.9993V20.1667H17.666V18.5Z" fill="#D9D9D9"/>
</svg>
