<svg width="32" height="32" viewBox="0 0 32 32" fill="none" xmlns="http://www.w3.org/2000/svg">
<rect width="32" height="32" rx="8" fill="#958AF8"/>
<path d="M16 26C10.477 26 6 21.523 6 16C6 10.477 10.477 6 16 6C21.523 6 26 10.477 26 16C26 21.523 21.523 26 16 26ZM13 17V19H12V21H20V19H15V17H18V15H15V14C14.9998 13.6761 15.1044 13.3608 15.2982 13.1013C15.492 12.8418 15.7646 12.652 16.0752 12.5603C16.3858 12.4686 16.7178 12.4798 17.0215 12.5924C17.3252 12.7051 17.5843 12.9129 17.76 13.185L19.746 12.689C19.4412 11.9363 18.8842 11.313 18.1703 10.9258C17.4565 10.5385 16.6303 10.4115 15.8331 10.5664C15.0359 10.7214 14.3174 11.1486 13.8006 11.775C13.2837 12.4013 13.0007 13.1879 13 14V15H12V17H13Z" fill="white"/>
</svg>
