<svg width="24" height="25" viewBox="0 0 24 25" fill="none" xmlns="http://www.w3.org/2000/svg">
<path fill-rule="evenodd" clip-rule="evenodd" d="M8.09257 5.38542C6.32131 5.38542 4.88542 6.82131 4.88542 8.59257C4.88542 10.3638 6.32131 11.7997 8.09257 11.7997C9.86383 11.7997 11.2997 10.3638 11.2997 8.59257C11.2997 6.82131 9.86383 5.38542 8.09257 5.38542ZM6.90331 8.59257C6.90331 7.93576 7.43576 7.40331 8.09257 7.40331C8.74939 7.40331 9.28184 7.93576 9.28184 8.59257C9.28184 9.24939 8.74939 9.78184 8.09257 9.78184C7.43576 9.78184 6.90331 9.24939 6.90331 8.59257Z" fill="#A2DDFF"/>
<path fill-rule="evenodd" clip-rule="evenodd" d="M3.4514 0.5C1.54525 0.5 0 2.04525 0 3.9514V21.0486C0 22.9548 1.54525 24.5 3.4514 24.5H20.5486C22.4548 24.5 24 22.9548 24 21.0486V3.9514C24 2.04525 22.4548 0.5 20.5486 0.5H3.4514ZM2.01789 3.9514C2.01789 3.15969 2.65969 2.51789 3.4514 2.51789H20.5486C21.3403 2.51789 21.9821 3.15969 21.9821 3.9514V13.7279L18.3755 10.1213C17.5523 9.29805 16.2175 9.29805 15.3943 10.1213L3.08159 22.434C2.46911 22.271 2.01789 21.7123 2.01789 21.0486V3.9514ZM16.8212 11.5482C16.8564 11.513 16.9135 11.513 16.9487 11.5482L21.9821 16.5816V21.0486C21.9821 21.8403 21.3403 22.4821 20.5486 22.4821H5.88721L16.8212 11.5482Z" fill="#A2DDFF"/>
</svg>
