<svg width="32" height="32" viewBox="0 0 32 32" fill="none" xmlns="http://www.w3.org/2000/svg">
<rect width="32" height="32" rx="8" fill="#F7F7F7"/>
<path d="M10.0227 23.5L10.006 23.5167L9.98852 23.5H8.49268C8.27336 23.4998 8.0631 23.4125 7.90809 23.2573C7.75308 23.1022 7.66602 22.8918 7.66602 22.6725V9.3275C7.66754 9.10865 7.7551 8.89918 7.90978 8.74435C8.06445 8.58951 8.27383 8.50175 8.49268 8.5H23.506C23.9627 8.5 24.3327 8.87083 24.3327 9.3275V22.6725C24.3312 22.8914 24.2436 23.1008 24.0889 23.2557C23.9342 23.4105 23.7249 23.4983 23.506 23.5H10.0227ZM22.666 18.5V10.1667H9.33268V21.8333L17.666 13.5L22.666 18.5ZM22.666 20.8567L17.666 15.8567L11.6893 21.8333H22.666V20.8567ZM12.666 15.1667C12.224 15.1667 11.8001 14.9911 11.4875 14.6785C11.1749 14.366 10.9993 13.942 10.9993 13.5C10.9993 13.058 11.1749 12.634 11.4875 12.3215C11.8001 12.0089 12.224 11.8333 12.666 11.8333C13.108 11.8333 13.532 12.0089 13.8445 12.3215C14.1571 12.634 14.3327 13.058 14.3327 13.5C14.3327 13.942 14.1571 14.366 13.8445 14.6785C13.532 14.9911 13.108 15.1667 12.666 15.1667Z" fill="#D9D9D9"/>
</svg>
