<svg width="32" height="32" viewBox="0 0 32 32" fill="none" xmlns="http://www.w3.org/2000/svg">
<rect width="32" height="32" rx="8" fill="#FB9B2A"/>
<path d="M7.89701 21.86L11.807 17.95L14.636 20.778L19.207 16.208L21 18V13H16L17.793 14.793L14.636 17.95L11.808 15.121L6.86201 20.067C6.29194 18.787 5.99821 17.4012 6.00001 16C6.00001 10.477 10.477 6 16 6C21.523 6 26 10.477 26 16C26 21.523 21.523 26 16 26C14.418 26.001 12.8584 25.6262 11.4496 24.9065C10.0408 24.1867 8.82321 23.1425 7.89701 21.86Z" fill="white"/>
</svg>
