<svg width="32" height="32" viewBox="0 0 32 32" fill="none" xmlns="http://www.w3.org/2000/svg">
<rect width="32" height="32" rx="8" fill="#005397"/>
<path d="M16.0005 21C19.6625 21 22.8655 22.575 24.6075 24.925L22.7655 25.796C21.3475 24.116 18.8475 23 16.0005 23C13.1535 23 10.6535 24.116 9.23553 25.796L7.39453 24.924C9.13653 22.574 12.3385 21 16.0005 21ZM16.0005 6C17.3266 6 18.5984 6.52678 19.5361 7.46447C20.4737 8.40215 21.0005 9.67392 21.0005 11V14C21.0005 15.3261 20.4737 16.5979 19.5361 17.5355C18.5984 18.4732 17.3266 19 16.0005 19C14.6744 19 13.4027 18.4732 12.465 17.5355C11.5273 16.5979 11.0005 15.3261 11.0005 14V11C11.0005 9.67392 11.5273 8.40215 12.465 7.46447C13.4027 6.52678 14.6744 6 16.0005 6Z" fill="white"/>
</svg>
