<svg width="32" height="32" viewBox="0 0 32 32" fill="none" xmlns="http://www.w3.org/2000/svg">
<rect width="32" height="32" rx="8" fill="#958AF8"/>
<path d="M13 23H16V16.942L12 13.454L8 16.942V23H11V19H13V23ZM25 25H7C6.73478 25 6.48043 24.8946 6.29289 24.7071C6.10536 24.5196 6 24.2652 6 24V16.487C5.99998 16.3441 6.03059 16.2029 6.08976 16.0728C6.14892 15.9428 6.23528 15.8269 6.343 15.733L10 12.544V8C10 7.73478 10.1054 7.48043 10.2929 7.29289C10.4804 7.10536 10.7348 7 11 7H25C25.2652 7 25.5196 7.10536 25.7071 7.29289C25.8946 7.48043 26 7.73478 26 8V24C26 24.2652 25.8946 24.5196 25.7071 24.7071C25.5196 24.8946 25.2652 25 25 25ZM20 15V17H22V15H20ZM20 19V21H22V19H20ZM20 11V13H22V11H20ZM16 11V13H18V11H16Z" fill="white"/>
</svg>
