<svg width="32" height="32" viewBox="0 0 32 32" fill="none" xmlns="http://www.w3.org/2000/svg">
<rect width="32" height="32" rx="8" fill="#F0F2FF"/>
<path d="M23.4993 23.5H8.49935C8.27834 23.5 8.06637 23.4122 7.91009 23.2559C7.75381 23.0996 7.66602 22.8877 7.66602 22.6667V16.4058C7.666 16.2868 7.69151 16.1691 7.74081 16.0607C7.79012 15.9523 7.86208 15.8557 7.95185 15.7775L10.9993 13.12V9.33333C10.9993 9.11232 11.0871 8.90036 11.2434 8.74408C11.3997 8.5878 11.6117 8.5 11.8327 8.5H23.4993C23.7204 8.5 23.9323 8.5878 24.0886 8.74408C24.2449 8.90036 24.3327 9.11232 24.3327 9.33333V22.6667C24.3327 22.8877 24.2449 23.0996 24.0886 23.2559C23.9323 23.4122 23.7204 23.5 23.4993 23.5ZM13.4993 21.8333H15.9993V16.785L12.666 13.8783L9.33268 16.785V21.8333H11.8327V18.5H13.4993V21.8333ZM17.666 21.8333H22.666V10.1667H12.666V11.9392C12.861 11.9392 13.0568 12.0075 13.2135 12.145L17.3802 15.7775C17.47 15.8557 17.5419 15.9523 17.5912 16.0607C17.6405 16.1691 17.666 16.2868 17.666 16.4058V21.8333ZM19.3327 15.1667H20.9993V16.8333H19.3327V15.1667ZM19.3327 18.5H20.9993V20.1667H19.3327V18.5ZM19.3327 11.8333H20.9993V13.5H19.3327V11.8333ZM15.9993 11.8333H17.666V13.5H15.9993V11.8333Z" fill="#958AF8"/>
</svg>
