<svg width="32" height="32" viewBox="0 0 32 32" fill="none" xmlns="http://www.w3.org/2000/svg">
<rect width="32" height="32" rx="8" fill="#68C8FF"/>
<path d="M13.33 15.5H15.5C16.6935 15.5 17.8381 15.9741 18.682 16.818C19.5259 17.6619 20 18.8065 20 20H12.999L13 21H21V20C20.9968 18.936 20.6894 17.895 20.114 17H23C23.9453 16.9997 24.8712 17.2674 25.6705 17.772C26.4698 18.2767 27.1097 18.9975 27.516 19.851C25.151 22.972 21.322 25 17 25C14.239 25 11.9 24.41 10 23.375V14.071C11.2166 14.2453 12.3655 14.7383 13.33 15.5ZM9 23C9 23.2652 8.89464 23.5196 8.70711 23.7071C8.51957 23.8946 8.26522 24 8 24H6C5.73478 24 5.48043 23.8946 5.29289 23.7071C5.10536 23.5196 5 23.2652 5 23V14C5 13.7348 5.10536 13.4804 5.29289 13.2929C5.48043 13.1054 5.73478 13 6 13H8C8.26522 13 8.51957 13.1054 8.70711 13.2929C8.89464 13.4804 9 13.7348 9 14V23ZM22 9C22.7956 9 23.5587 9.31607 24.1213 9.87868C24.6839 10.4413 25 11.2044 25 12C25 12.7956 24.6839 13.5587 24.1213 14.1213C23.5587 14.6839 22.7956 15 22 15C21.2044 15 20.4413 14.6839 19.8787 14.1213C19.3161 13.5587 19 12.7956 19 12C19 11.2044 19.3161 10.4413 19.8787 9.87868C20.4413 9.31607 21.2044 9 22 9ZM15 6C15.7956 6 16.5587 6.31607 17.1213 6.87868C17.6839 7.44129 18 8.20435 18 9C18 9.79565 17.6839 10.5587 17.1213 11.1213C16.5587 11.6839 15.7956 12 15 12C14.2044 12 13.4413 11.6839 12.8787 11.1213C12.3161 10.5587 12 9.79565 12 9C12 8.20435 12.3161 7.44129 12.8787 6.87868C13.4413 6.31607 14.2044 6 15 6Z" fill="white"/>
</svg>
