<svg width="32" height="32" viewBox="0 0 32 32" fill="none" xmlns="http://www.w3.org/2000/svg">
<rect width="32" height="32" rx="8" fill="#FFE6E3"/>
<path d="M15.9998 20.167C19.0515 20.167 21.7206 21.4795 23.1723 23.4378L21.6373 24.1637C20.4556 22.7637 18.3723 21.8337 15.9998 21.8337C13.6273 21.8337 11.544 22.7637 10.3623 24.1637L8.82812 23.437C10.2798 21.4787 12.9481 20.167 15.9998 20.167ZM15.9998 7.66699C17.1049 7.66699 18.1647 8.10598 18.9461 8.88738C19.7275 9.66878 20.1665 10.7286 20.1665 11.8337V14.3337C20.1665 15.4387 19.7275 16.4985 18.9461 17.2799C18.1647 18.0613 17.1049 18.5003 15.9998 18.5003C14.8947 18.5003 13.8349 18.0613 13.0535 17.2799C12.2721 16.4985 11.8331 15.4387 11.8331 14.3337V11.8337C11.8331 10.7286 12.2721 9.66878 13.0535 8.88738C13.8349 8.10598 14.8947 7.66699 15.9998 7.66699Z" fill="#EF3E4A"/>
</svg>
