<svg width="32" height="32" viewBox="0 0 32 32" fill="none" xmlns="http://www.w3.org/2000/svg">
<rect width="32" height="32" rx="8" fill="#68C8FF"/>
<path d="M23 24H9V25C9 25.2652 8.89464 25.5196 8.70711 25.7071C8.51957 25.8946 8.26522 26 8 26H7C6.73478 26 6.48043 25.8946 6.29289 25.7071C6.10536 25.5196 6 25.2652 6 25V16L8.513 9.298C8.65593 8.91669 8.91186 8.5881 9.24656 8.35615C9.58126 8.1242 9.97878 7.99995 10.386 8H21.614C22.0212 7.99995 22.4187 8.1242 22.7534 8.35615C23.0881 8.5881 23.3441 8.91669 23.487 9.298L26 16V25C26 25.2652 25.8946 25.5196 25.7071 25.7071C25.5196 25.8946 25.2652 26 25 26H24C23.7348 26 23.4804 25.8946 23.2929 25.7071C23.1054 25.5196 23 25.2652 23 25V24ZM8.136 16H23.864L21.614 10H10.386L8.136 16ZM10.5 21C10.8978 21 11.2794 20.842 11.5607 20.5607C11.842 20.2794 12 19.8978 12 19.5C12 19.1022 11.842 18.7206 11.5607 18.4393C11.2794 18.158 10.8978 18 10.5 18C10.1022 18 9.72064 18.158 9.43934 18.4393C9.15804 18.7206 9 19.1022 9 19.5C9 19.8978 9.15804 20.2794 9.43934 20.5607C9.72064 20.842 10.1022 21 10.5 21ZM21.5 21C21.8978 21 22.2794 20.842 22.5607 20.5607C22.842 20.2794 23 19.8978 23 19.5C23 19.1022 22.842 18.7206 22.5607 18.4393C22.2794 18.158 21.8978 18 21.5 18C21.1022 18 20.7206 18.158 20.4393 18.4393C20.158 18.7206 20 19.1022 20 19.5C20 19.8978 20.158 20.2794 20.4393 20.5607C20.7206 20.842 21.1022 21 21.5 21Z" fill="white"/>
</svg>
