<svg  width="32" height="32" viewBox="0 0 32 32" fill="none" xmlns="http://www.w3.org/2000/svg">
<rect width="32" height="32" rx="8" fill="#6BD5E1"/>
<path d="M21.1667 23.6667H9.5C8.83696 23.6667 8.20107 23.4033 7.73223 22.9344C7.26339 22.4656 7 21.8297 7 21.1667V7.83333C7 7.61232 7.0878 7.40036 7.24408 7.24408C7.40036 7.0878 7.61232 7 7.83333 7H19.5C19.721 7 19.933 7.0878 20.0893 7.24408C20.2455 7.40036 20.3333 7.61232 20.3333 7.83333V17.8333H23.6667V21.1667C23.6667 21.8297 23.4033 22.4656 22.9344 22.9344C22.4656 23.4033 21.8297 23.6667 21.1667 23.6667ZM20.3333 19.5V21.1667C20.3333 21.3877 20.4211 21.5996 20.5774 21.7559C20.7337 21.9122 20.9457 22 21.1667 22C21.3877 22 21.5996 21.9122 21.7559 21.7559C21.9122 21.5996 22 21.3877 22 21.1667V19.5H20.3333ZM18.6667 22V8.66667H8.66667V21.1667C8.66667 21.3877 8.75446 21.5996 8.91074 21.7559C9.06702 21.9122 9.27899 22 9.5 22H18.6667ZM10.3333 11.1667H17V12.8333H10.3333V11.1667ZM10.3333 14.5H17V16.1667H10.3333V14.5ZM10.3333 17.8333H14.5V19.5H10.3333V17.8333Z" fill="white"/>
</svg>
