<svg width="32" height="32" viewBox="0 0 32 32" fill="none" xmlns="http://www.w3.org/2000/svg">
<rect width="32" height="32" rx="8" fill="#FF7CA3"/>
<path d="M18.2181 15.4116L17.3641 16.2656L24.4351 23.3366L23.0211 24.7506L15.9501 17.6806L8.87915 24.7506L7.46515 23.3366L16.8041 13.9976C16.2161 12.5406 16.8241 10.4426 18.4241 8.84063C20.3771 6.88863 23.0681 6.41363 24.4351 7.78063C25.8021 9.14763 25.3271 11.8386 23.3751 13.7906C21.7731 15.3926 19.6751 16.0006 18.2181 15.4116ZM8.17215 7.07363L14.8891 13.7906L12.0611 16.6196L8.17115 12.7296C7.42126 11.9795 7 10.9623 7 9.90163C7 8.84097 7.42126 7.82374 8.17115 7.07363H8.17215ZM21.9601 12.3756C23.2181 11.1186 23.4771 9.64963 23.0211 9.19363C22.5651 8.73763 21.0961 8.99663 19.8391 10.2536C18.5821 11.5116 18.3231 12.9806 18.7791 13.4366C19.2341 13.8916 20.7031 13.6326 21.9601 12.3756Z" fill="white"/>
</svg>
