<svg width="32" height="32" viewBox="0 0 32 32" fill="none" xmlns="http://www.w3.org/2000/svg">
<rect width="32" height="32" rx="8" fill="#B76BF2"/>
<path d="M6 7.993C6.00183 7.73038 6.1069 7.47902 6.29251 7.29322C6.47813 7.10742 6.72938 7.00209 6.992 7H25.008C25.556 7 26 7.445 26 7.993V24.007C25.9982 24.2696 25.8931 24.521 25.7075 24.7068C25.5219 24.8926 25.2706 24.9979 25.008 25H6.992C6.72881 24.9997 6.4765 24.895 6.29049 24.7088C6.10448 24.5226 6 24.2702 6 24.007V7.993ZM12 9V23H20V9H12ZM8 9V11H10V9H8ZM22 9V11H24V9H22ZM8 13V15H10V13H8ZM22 13V15H24V13H22ZM8 17V19H10V17H8ZM22 17V19H24V17H22ZM8 21V23H10V21H8ZM22 21V23H24V21H22Z" fill="white"/>
</svg>
