<svg width="32" height="32" viewBox="0 0 32 32" fill="none" xmlns="http://www.w3.org/2000/svg">
<rect width="32" height="32" rx="8" fill="#FF5858"/>
<path d="M16 26C10.477 26 6 21.523 6 16C6 10.477 10.477 6 16 6C21.523 6 26 10.477 26 16C26 21.523 21.523 26 16 26ZM16 24C18.1217 24 20.1566 23.1571 21.6569 21.6569C23.1571 20.1566 24 18.1217 24 16C24 13.8783 23.1571 11.8434 21.6569 10.3431C20.1566 8.84285 18.1217 8 16 8C13.8783 8 11.8434 8.84285 10.3431 10.3431C8.84285 11.8434 8 13.8783 8 16C8 18.1217 8.84285 20.1566 10.3431 21.6569C11.8434 23.1571 13.8783 24 16 24ZM12.5 18H18C18.1326 18 18.2598 17.9473 18.3536 17.8536C18.4473 17.7598 18.5 17.6326 18.5 17.5C18.5 17.3674 18.4473 17.2402 18.3536 17.1464C18.2598 17.0527 18.1326 17 18 17H14C13.337 17 12.7011 16.7366 12.2322 16.2678C11.7634 15.7989 11.5 15.163 11.5 14.5C11.5 13.837 11.7634 13.2011 12.2322 12.7322C12.7011 12.2634 13.337 12 14 12H15V10H17V12H19.5V14H14C13.8674 14 13.7402 14.0527 13.6464 14.1464C13.5527 14.2402 13.5 14.3674 13.5 14.5C13.5 14.6326 13.5527 14.7598 13.6464 14.8536C13.7402 14.9473 13.8674 15 14 15H18C18.663 15 19.2989 15.2634 19.7678 15.7322C20.2366 16.2011 20.5 16.837 20.5 17.5C20.5 18.163 20.2366 18.7989 19.7678 19.2678C19.2989 19.7366 18.663 20 18 20H17V22H15V20H12.5V18Z" fill="white"/>
</svg>
