<svg width="32" height="32" viewBox="0 0 32 32" fill="none" xmlns="http://www.w3.org/2000/svg">
<rect width="32" height="32" rx="8" fill="#32B67A"/>
<path d="M16 26C10.477 26 6 21.523 6 16C6 10.477 10.477 6 16 6C21.523 6 26 10.477 26 16C26 21.523 21.523 26 16 26ZM12.5 18V20H15V22H17V20H18C18.663 20 19.2989 19.7366 19.7678 19.2678C20.2366 18.7989 20.5 18.163 20.5 17.5C20.5 16.837 20.2366 16.2011 19.7678 15.7322C19.2989 15.2634 18.663 15 18 15H14C13.8674 15 13.7402 14.9473 13.6464 14.8536C13.5527 14.7598 13.5 14.6326 13.5 14.5C13.5 14.3674 13.5527 14.2402 13.6464 14.1464C13.7402 14.0527 13.8674 14 14 14H19.5V12H17V10H15V12H14C13.337 12 12.7011 12.2634 12.2322 12.7322C11.7634 13.2011 11.5 13.837 11.5 14.5C11.5 15.163 11.7634 15.7989 12.2322 16.2678C12.7011 16.7366 13.337 17 14 17H18C18.1326 17 18.2598 17.0527 18.3536 17.1464C18.4473 17.2402 18.5 17.3674 18.5 17.5C18.5 17.6326 18.4473 17.7598 18.3536 17.8536C18.2598 17.9473 18.1326 18 18 18H12.5Z" fill="white"/>
</svg>
