<svg width="32" height="32" viewBox="0 0 32 32" fill="none" xmlns="http://www.w3.org/2000/svg">
<rect width="32" height="32" rx="8" fill="#70C798"/>
<path d="M23 12.5667V10.6667C23 9.75 22.25 9 21.3333 9H9.66667C8.74167 9 8 9.75 8 10.6667V22.3333C8 23.25 8.74167 24 9.66667 24H21.3333C22.25 24 23 23.25 23 22.3333V20.4333C23.4917 20.1417 23.8333 19.6167 23.8333 19V14C23.8333 13.3833 23.4917 12.8583 23 12.5667ZM22.1667 14V19H16.3333V14H22.1667ZM9.66667 22.3333V10.6667H21.3333V12.3333H16.3333C15.4167 12.3333 14.6667 13.0833 14.6667 14V19C14.6667 19.9167 15.4167 20.6667 16.3333 20.6667H21.3333V22.3333H9.66667Z" fill="white"/>
</svg>
