<svg width="32" height="32" viewBox="0 0 32 32" fill="none" xmlns="http://www.w3.org/2000/svg">
<rect width="32" height="32" rx="8" fill="#FFC14A"/>
<path d="M24 26H8C7.73478 26 7.48043 25.8946 7.29289 25.7071C7.10536 25.5196 7 25.2652 7 25V7C7 6.73478 7.10536 6.48043 7.29289 6.29289C7.48043 6.10536 7.73478 6 8 6H24C24.2652 6 24.5196 6.10536 24.7071 6.29289C24.8946 6.48043 25 6.73478 25 7V25C25 25.2652 24.8946 25.5196 24.7071 25.7071C24.5196 25.8946 24.2652 26 24 26ZM23 24V8H9V24H23ZM13 10V12C13 12.7956 13.3161 13.5587 13.8787 14.1213C14.4413 14.6839 15.2044 15 16 15C16.7956 15 17.5587 14.6839 18.1213 14.1213C18.6839 13.5587 19 12.7956 19 12V10H21V12C21 13.3261 20.4732 14.5979 19.5355 15.5355C18.5979 16.4732 17.3261 17 16 17C14.6739 17 13.4021 16.4732 12.4645 15.5355C11.5268 14.5979 11 13.3261 11 12V10H13Z" fill="white"/>
</svg>
