<svg width="32" height="32" viewBox="0 0 32 32" fill="none" xmlns="http://www.w3.org/2000/svg">
<rect width="32" height="32" rx="8" fill="#EC60C5"/>
<path d="M20.841 19.659L21.017 19.836L21.195 19.659C21.4039 19.4501 21.652 19.2843 21.925 19.1713C22.1979 19.0582 22.4905 19 22.786 19C23.0815 19 23.3741 19.0582 23.647 19.1713C23.92 19.2843 24.1681 19.4501 24.377 19.659C24.5859 19.8679 24.7517 20.116 24.8647 20.389C24.9778 20.6619 25.036 20.9545 25.036 21.25C25.036 21.5455 24.9778 21.8381 24.8647 22.111C24.7517 22.384 24.5859 22.6321 24.377 22.841L21.017 26.2L17.659 22.841C17.237 22.419 17 21.8467 17 21.25C17 20.6533 17.237 20.081 17.659 19.659C18.081 19.237 18.6533 19 19.25 19C19.8467 19 20.419 19.237 20.841 19.659ZM15 18V20C13.4087 20 11.8826 20.6321 10.7574 21.7574C9.63214 22.8826 9 24.4087 9 26H7C7.00002 23.9216 7.80894 21.9247 9.25547 20.4323C10.702 18.9398 12.6726 18.069 14.75 18.004L15 18ZM15 5C18.315 5 21 7.685 21 11C21.0006 12.5525 20.3991 14.0448 19.3221 15.163C18.2451 16.2812 16.7765 16.9383 15.225 16.996L15 17C11.685 17 9 14.315 9 11C8.99944 9.44747 9.6009 7.95521 10.6779 6.83699C11.7549 5.71877 13.2235 5.06172 14.775 5.004L15 5ZM15 7C12.79 7 11 8.79 11 11C11 13.21 12.79 15 15 15C17.21 15 19 13.21 19 11C19 8.79 17.21 7 15 7Z" fill="white"/>
</svg>
