<svg width="32" height="32" viewBox="0 0 32 32" fill="none" xmlns="http://www.w3.org/2000/svg">
<rect width="32" height="32" rx="8" fill="#8ECD78"/>
<path d="M13.9417 15.9167H15.75C16.7446 15.9167 17.6984 16.3118 18.4017 17.015C19.1049 17.7183 19.5 18.6721 19.5 19.6667H13.6658L13.6667 20.5H20.3333V19.6667C20.3307 18.78 20.0745 17.9125 19.595 17.1667H22C22.7877 17.1664 23.5594 17.3895 24.2254 17.81C24.8915 18.2305 25.4248 18.8313 25.7633 19.5425C23.7925 22.1433 20.6017 23.8333 17 23.8333C14.6992 23.8333 12.75 23.3417 11.1667 22.4792V14.7258C12.1805 14.8711 13.1379 15.2819 13.9417 15.9167ZM10.3333 22.1667C10.3333 22.3877 10.2455 22.5996 10.0893 22.7559C9.93298 22.9122 9.72101 23 9.5 23H7.83333C7.61232 23 7.40036 22.9122 7.24408 22.7559C7.0878 22.5996 7 22.3877 7 22.1667V14.6667C7 14.4457 7.0878 14.2337 7.24408 14.0774C7.40036 13.9211 7.61232 13.8333 7.83333 13.8333H9.5C9.72101 13.8333 9.93298 13.9211 10.0893 14.0774C10.2455 14.2337 10.3333 14.4457 10.3333 14.6667V22.1667ZM21.1667 10.5C21.8297 10.5 22.4656 10.7634 22.9344 11.2322C23.4033 11.7011 23.6667 12.337 23.6667 13C23.6667 13.663 23.4033 14.2989 22.9344 14.7678C22.4656 15.2366 21.8297 15.5 21.1667 15.5C20.5036 15.5 19.8677 15.2366 19.3989 14.7678C18.9301 14.2989 18.6667 13.663 18.6667 13C18.6667 12.337 18.9301 11.7011 19.3989 11.2322C19.8677 10.7634 20.5036 10.5 21.1667 10.5ZM15.3333 8C15.9964 8 16.6323 8.26339 17.1011 8.73223C17.5699 9.20107 17.8333 9.83696 17.8333 10.5C17.8333 11.163 17.5699 11.7989 17.1011 12.2678C16.6323 12.7366 15.9964 13 15.3333 13C14.6703 13 14.0344 12.7366 13.5656 12.2678C13.0967 11.7989 12.8333 11.163 12.8333 10.5C12.8333 9.83696 13.0967 9.20107 13.5656 8.73223C14.0344 8.26339 14.6703 8 15.3333 8Z" fill="white"/>
</svg>
