<svg width="32" height="32" viewBox="0 0 32 32" fill="none" xmlns="http://www.w3.org/2000/svg">
<rect width="32" height="32" rx="8" fill="#8765E7"/>
<path d="M9.32601 7.20349C9.95006 6.98086 10.6245 6.93994 11.2709 7.08549C11.9173 7.23104 12.5091 7.55707 12.9775 8.02568C13.4459 8.49429 13.7716 9.08623 13.9169 9.73269C14.0621 10.3791 14.0209 11.0535 13.798 11.6775L24.643 22.5225L22.521 24.6435L11.676 13.7995C11.052 14.0221 10.3775 14.063 9.73116 13.9175C9.08477 13.7719 8.49298 13.4459 8.02457 12.9773C7.55617 12.5087 7.2304 11.9167 7.08515 11.2703C6.93989 10.6238 6.98111 9.94944 7.20401 9.32549L9.44001 11.5625C9.57838 11.7058 9.7439 11.82 9.92691 11.8986C10.1099 11.9773 10.3067 12.0186 10.5059 12.0204C10.7051 12.0221 10.9026 11.9841 11.0869 11.9087C11.2713 11.8333 11.4388 11.7219 11.5796 11.5811C11.7204 11.4402 11.8318 11.2728 11.9072 11.0884C11.9827 10.9041 12.0206 10.7066 12.0189 10.5074C12.0172 10.3082 11.9758 10.1114 11.8972 9.92838C11.8186 9.74538 11.7043 9.57986 11.561 9.44149L9.32501 7.20249L9.32601 7.20349ZM19.693 9.08749L22.875 7.31949L24.289 8.73349L22.521 11.9155L20.753 12.2695L18.633 14.3905L17.218 12.9765L19.339 10.8555L19.693 9.08749ZM12.622 16.8655L14.743 18.9875L9.79301 23.9375C9.52005 24.2079 9.15373 24.3632 8.7696 24.3715C8.38546 24.3798 8.0128 24.2403 7.72847 23.9819C7.44414 23.7235 7.26981 23.3658 7.24145 22.9826C7.21308 22.5994 7.33284 22.22 7.57601 21.9225L7.67301 21.8155L12.623 16.8655H12.622Z" fill="white"/>
</svg>
