<svg width="32" height="32" viewBox="0 0 32 32" fill="none" xmlns="http://www.w3.org/2000/svg">
<rect width="32" height="32" rx="8" fill="#958AF8"/>
<path d="M16.3333 8C17.6594 8 18.9312 8.52678 19.8689 9.46447C20.8066 10.4021 21.3333 11.6739 21.3333 13V13.8333H24.6667V15.5H23.6942L23.0633 23.0692C23.046 23.2774 22.951 23.4715 22.7973 23.6131C22.6436 23.7546 22.4423 23.8332 22.2333 23.8333H10.4333C10.2244 23.8332 10.0231 23.7546 9.86935 23.6131C9.71562 23.4715 9.62068 23.2774 9.60333 23.0692L8.97167 15.5H8V13.8333H11.3333V13C11.3333 11.6739 11.8601 10.4021 12.7978 9.46447C13.7355 8.52678 15.0073 8 16.3333 8ZM22.0217 15.5H10.6442L11.2 22.1667H21.4658L22.0217 15.5ZM17.1667 17.1667V20.5H15.5V17.1667H17.1667ZM13.8333 17.1667V20.5H12.1667V17.1667H13.8333ZM20.5 17.1667V20.5H18.8333V17.1667H20.5ZM16.3333 9.66667C15.4781 9.66667 14.6556 9.99536 14.036 10.5848C13.4163 11.1742 13.0469 11.9792 13.0042 12.8333L13 13V13.8333H19.6667V13C19.6667 12.1448 19.338 11.3223 18.7486 10.7027C18.1592 10.083 17.3541 9.71359 16.5 9.67083L16.3333 9.66667Z" fill="white"/>
</svg>
