<svg width="32" height="32" viewBox="0 0 32 32" fill="none" xmlns="http://www.w3.org/2000/svg">
<rect width="32" height="32" rx="8" fill="#4B8DDA"/>
<path d="M23 23H9V24C9 24.2652 8.89464 24.5196 8.70711 24.7071C8.51957 24.8946 8.26522 25 8 25H7C6.73478 25 6.48043 24.8946 6.29289 24.7071C6.10536 24.5196 6 24.2652 6 24V15L8.513 8.298C8.65593 7.91669 8.91186 7.5881 9.24656 7.35615C9.58126 7.1242 9.97878 6.99995 10.386 7H21.614C22.0212 6.99995 22.4187 7.1242 22.7534 7.35615C23.0881 7.5881 23.3441 7.91669 23.487 8.298L26 15V24C26 24.2652 25.8946 24.5196 25.7071 24.7071C25.5196 24.8946 25.2652 25 25 25H24C23.7348 25 23.4804 24.8946 23.2929 24.7071C23.1054 24.5196 23 24.2652 23 24V23ZM8.136 15H23.864L21.614 9H10.386L8.136 15ZM10.5 20C10.8978 20 11.2794 19.842 11.5607 19.5607C11.842 19.2794 12 18.8978 12 18.5C12 18.1022 11.842 17.7206 11.5607 17.4393C11.2794 17.158 10.8978 17 10.5 17C10.1022 17 9.72064 17.158 9.43934 17.4393C9.15804 17.7206 9 18.1022 9 18.5C9 18.8978 9.15804 19.2794 9.43934 19.5607C9.72064 19.842 10.1022 20 10.5 20ZM21.5 20C21.8978 20 22.2794 19.842 22.5607 19.5607C22.842 19.2794 23 18.8978 23 18.5C23 18.1022 22.842 17.7206 22.5607 17.4393C22.2794 17.158 21.8978 17 21.5 17C21.1022 17 20.7206 17.158 20.4393 17.4393C20.158 17.7206 20 18.1022 20 18.5C20 18.8978 20.158 19.2794 20.4393 19.5607C20.7206 19.842 21.1022 20 21.5 20Z" fill="white"/>
</svg>
